<svg width="20" height="20" viewBox="0 0 20 20" fill="none" xmlns="http://www.w3.org/2000/svg">
<g clip-path="url(#clip0_362_2097)">
<path d="M6.96721 0.657813C4.9689 1.35105 3.24556 2.66682 2.05032 4.41188C0.855082 6.15693 0.250946 8.23929 0.326651 10.3531C0.402355 12.4669 1.15391 14.5007 2.47092 16.1557C3.78794 17.8108 5.60099 18.9999 7.64377 19.5484C9.2999 19.9758 11.035 19.9945 12.7 19.6031C14.2083 19.2643 15.6028 18.5396 16.7469 17.5C17.9376 16.3849 18.802 14.9664 19.2469 13.3969C19.7305 11.6901 19.8166 9.89521 19.4985 8.15H10.1985V12.0078H15.5844C15.4768 12.6231 15.2461 13.2104 14.9062 13.7344C14.5663 14.2585 14.1242 14.7086 13.6063 15.0578C12.9486 15.4929 12.2072 15.7856 11.4297 15.9172C10.6499 16.0622 9.85011 16.0622 9.07033 15.9172C8.28 15.7538 7.53236 15.4276 6.87502 14.9594C5.819 14.2119 5.02608 13.1499 4.6094 11.925C4.18567 10.6772 4.18567 9.32439 4.6094 8.07656C4.906 7.2019 5.39632 6.40553 6.04377 5.74688C6.7847 4.97929 7.72273 4.43062 8.75495 4.16106C9.78718 3.89149 10.8737 3.91146 11.8953 4.21875C12.6934 4.46374 13.4232 4.89178 14.0266 5.46875C14.6339 4.86458 15.2401 4.25886 15.8453 3.65156C16.1578 3.325 16.4985 3.01406 16.8063 2.67969C15.8853 1.82262 14.8042 1.15571 13.625 0.717188C11.4777 -0.062515 9.12811 -0.0834688 6.96721 0.657813Z" fill="white"/>
<path d="M6.96758 0.657814C9.1283 -0.0839724 11.4779 -0.0635702 13.6254 0.715626C14.8048 1.15713 15.8854 1.82725 16.8051 2.6875C16.4926 3.02188 16.1629 3.33438 15.8441 3.65938C15.2379 4.26458 14.6322 4.86771 14.027 5.46875C13.4236 4.89178 12.6938 4.46374 11.8957 4.21875C10.8744 3.91038 9.78792 3.88926 8.75542 4.15772C7.72292 4.42618 6.78432 4.97385 6.04258 5.74063C5.39513 6.39928 4.90481 7.19565 4.6082 8.07031L1.36914 5.5625C2.52853 3.26338 4.53594 1.50473 6.96758 0.657814Z" fill="#E33629"/>
<path d="M0.509175 8.04688C0.683271 7.18405 0.972306 6.34848 1.36855 5.5625L4.60761 8.07656C4.18389 9.32438 4.18389 10.6772 4.60761 11.925C3.52845 12.7583 2.44876 13.5958 1.36855 14.4375C0.376598 12.463 0.07407 10.2133 0.509175 8.04688Z" fill="#F8BD00"/>
<path d="M10.198 8.14844H19.498C19.8161 9.89365 19.73 11.6885 19.2464 13.3953C18.8015 14.9648 17.9371 16.3834 16.7464 17.4984C15.7011 16.6828 14.6511 15.8734 13.6058 15.0578C14.124 14.7082 14.5663 14.2576 14.9063 13.733C15.2462 13.2084 15.4766 12.6205 15.5839 12.0047H10.198C10.1964 10.7203 10.198 9.43437 10.198 8.14844Z" fill="#587DBD"/>
<path d="M1.36719 14.4375C2.4474 13.6042 3.52708 12.7667 4.60625 11.925C5.02376 13.1503 5.81782 14.2123 6.875 14.9594C7.53439 15.4254 8.28364 15.749 9.075 15.9094C9.85478 16.0544 10.6546 16.0544 11.4344 15.9094C12.2119 15.7778 12.9533 15.485 13.6109 15.05C14.6562 15.8656 15.7063 16.675 16.7516 17.4906C15.6076 18.5308 14.2132 19.2561 12.7047 19.5953C11.0397 19.9867 9.30457 19.968 7.64844 19.5406C6.3386 19.1909 5.11512 18.5744 4.05469 17.7297C2.93228 16.8386 2.01556 15.7156 1.36719 14.4375Z" fill="#319F43"/>
</g>
<defs>
<clipPath id="clip0_362_2097">
<rect width="20" height="20" fill="white"/>
</clipPath>
</defs>
</svg>
