<svg width="24" height="24" viewBox="0 0 24 24" fill="none" xmlns="http://www.w3.org/2000/svg">
<g clip-path="url(#clip0_362_2130)">
<path d="M17.0012 0.904686L14.7325 3.17344L20.8262 9.26719L23.095 6.99844C24.2669 5.82656 24.2669 3.92812 23.095 2.75625L21.2481 0.904686C20.0762 -0.267189 18.1778 -0.267189 17.0059 0.904686H17.0012ZM13.6731 4.23281L2.74655 15.1641C2.25905 15.6516 1.9028 16.2562 1.70593 16.9172L0.0465501 22.5562C-0.0706374 22.9547 0.0371751 23.3812 0.3278 23.6719C0.618425 23.9625 1.04499 24.0703 1.43874 23.9578L7.0778 22.2984C7.73874 22.1016 8.34342 21.7453 8.83092 21.2578L19.7669 10.3266L13.6731 4.23281Z" fill="black"/>
</g>
<defs>
<clipPath id="clip0_362_2130">
<rect width="24" height="24" fill="white"/>
</clipPath>
</defs>
</svg>
