<svg width="102" height="90" viewBox="0 0 102 90" fill="none" xmlns="http://www.w3.org/2000/svg">
<path d="M54.8075 25.4786C55.2618 25.4775 55.7161 25.4759 56.1704 25.4741C60.0673 25.461 63.929 25.5923 67.8154 25.8946C68.8491 25.9732 69.8835 26.0412 70.918 26.1092C72.6271 26.2357 74.3254 26.4736 76.0242 26.7001C76.4674 26.7587 76.9108 26.8157 77.3544 26.8709C92.4367 28.7592 92.4367 28.7592 95.676 32.67C95.778 33.2737 95.778 33.2737 95.676 33.93C93.3485 36.6457 88.8427 37.9252 85.476 38.55C85.3414 38.4807 85.2067 38.4114 85.068 38.34C85.068 37.9242 85.068 37.5084 85.068 37.08C84.9378 37.2292 84.8077 37.3783 84.6735 37.532C84.505 37.725 84.3364 37.918 84.1628 38.1169C83.9947 38.3093 83.8267 38.5018 83.6535 38.7001C83.232 39.18 83.232 39.18 83.028 39.39C82.9982 39.7918 82.9816 40.1947 82.9706 40.5975C82.963 40.8422 82.9554 41.0869 82.9475 41.3391C82.9369 41.7256 82.9369 41.7256 82.926 42.12C82.912 42.6275 82.8972 43.135 82.8814 43.6425C82.8752 43.8688 82.869 44.0951 82.8626 44.3283C82.824 44.85 82.824 44.85 82.62 45.06C82.2503 45.0879 82.2503 45.0879 81.804 45.0862C81.6567 45.0868 81.5095 45.0873 81.3577 45.0879C80.988 45.06 80.988 45.06 80.784 44.85C80.7717 44.4802 80.7717 44.11 80.7768 43.7401C80.7757 43.5115 80.7745 43.2829 80.7732 43.0474C80.7719 42.5661 80.776 42.0848 80.786 41.6036C80.7693 40.3301 80.6993 39.5663 79.7967 38.6484C79.6552 38.5278 79.5138 38.4072 79.368 38.283C78.4881 37.5225 77.8108 36.5758 77.6732 35.3775C77.6213 34.3316 77.6604 33.2945 77.724 32.25C78.1279 32.25 78.5318 32.25 78.948 32.25C78.948 32.1114 78.948 31.9728 78.948 31.83C78.8359 31.8055 78.7238 31.7809 78.6082 31.7557C77.6671 31.5457 76.739 31.31 75.812 31.0424C72.2532 30.0262 68.6364 29.504 64.974 29.0737C64.8333 29.0568 64.6926 29.0399 64.5477 29.0225C58.9437 28.357 53.3435 28.1803 47.7085 28.1932C47.1917 28.1944 46.6748 28.1949 46.158 28.1953C40.9168 28.2022 35.7103 28.3357 30.4892 28.8422C29.9773 28.891 29.4651 28.9369 28.9529 28.982C23.9658 29.4222 19.0312 30.1118 14.089 30.9214C13.0652 31.0882 12.0406 31.2487 11.016 31.41C10.9487 31.2021 10.8814 30.9942 10.812 30.78C13.0334 29.9796 15.2971 29.4557 17.6078 29.0081C17.8385 28.9632 18.0692 28.9183 18.3069 28.872C19.0044 28.737 19.7022 28.6034 20.4 28.47C20.5966 28.4318 20.7932 28.3935 20.9958 28.3541C27.3995 27.1135 33.9023 26.4912 40.392 25.95C40.5479 25.9368 40.7039 25.9237 40.8645 25.9101C45.5063 25.5228 50.1531 25.4877 54.8075 25.4786ZM79.152 32.04C79.356 32.46 79.356 32.46 79.356 32.46L79.152 32.04ZM79.56 32.25C79.4242 33.9248 79.4209 35.1289 80.4437 36.4894C80.8611 36.9562 81.2933 37.3543 81.804 37.71C82.1088 37.4247 82.4099 37.1351 82.7093 36.8437C82.8773 36.6829 83.0453 36.5222 83.2185 36.3565C83.7006 35.7429 83.7838 35.3369 83.844 34.56C83.0966 33.9087 82.3344 33.4098 81.4725 32.9325C81.2427 32.8036 81.0128 32.6748 80.776 32.542C80.1909 32.2054 80.1909 32.2054 79.56 32.25Z" fill="#F47B07"/>
<path d="M54.8075 25.4786C55.2618 25.4775 55.7161 25.4759 56.1704 25.4741C60.0658 25.461 63.9258 25.5926 67.8106 25.8941C69.0746 25.9904 70.3393 26.0747 71.604 26.16C70.8729 26.9126 69.7421 26.762 68.748 26.79C68.3065 26.7571 67.8759 26.6993 67.4379 26.6341C66.2507 26.5119 65.0438 26.5655 63.852 26.58C63.9193 26.7186 63.9866 26.8572 64.056 27C63.854 27 63.6521 27 63.444 27C63.444 27.3465 63.444 27.693 63.444 28.05C63.6218 28.0578 63.7995 28.0657 63.9827 28.0738C65.6375 28.1678 67.1569 28.413 68.748 28.89C68.6807 29.0286 68.6134 29.1672 68.544 29.31C67.3228 29.3389 66.1538 29.2642 64.9418 29.1101C59.1987 28.3887 53.4873 28.1799 47.7085 28.1932C47.1917 28.1944 46.6748 28.1949 46.158 28.1953C40.9168 28.2022 35.7103 28.3357 30.4892 28.8422C29.9773 28.891 29.4651 28.9369 28.9529 28.982C23.9658 29.4222 19.0312 30.1118 14.089 30.9214C13.0652 31.0882 12.0406 31.2487 11.016 31.41C10.9487 31.2021 10.8814 30.9942 10.812 30.78C13.0334 29.9796 15.2971 29.4557 17.6078 29.0081C17.8385 28.9632 18.0692 28.9183 18.3069 28.872C19.0044 28.737 19.7022 28.6034 20.4 28.47C20.5966 28.4318 20.7932 28.3935 20.9958 28.3541C27.3995 27.1135 33.9023 26.4912 40.392 25.95C40.5479 25.9368 40.7039 25.9237 40.8645 25.9101C45.5063 25.5228 50.1531 25.4877 54.8075 25.4786Z" fill="#DA8329"/>
<path d="M40.596 32.25C41.5464 32.2343 42.4968 32.2229 43.4473 32.2154C43.7698 32.2122 44.0923 32.208 44.4147 32.2025C46.4602 32.1685 48.3064 32.1562 50.1457 33.2081C51.0683 34.2663 51.6665 35.4606 51.7267 36.8963C51.6514 38.268 51.1262 39.2021 50.2732 40.23C49.776 40.65 49.776 40.65 49.164 40.65C49.2395 41.6965 49.7587 42.184 50.4772 42.855C51.1899 43.5257 51.7331 44.0837 52.02 45.06C49.9569 45.3149 49.9569 45.3149 49.0963 44.745C48.6783 44.3105 48.3072 43.8606 47.94 43.38C47.7115 43.1122 47.482 42.8453 47.2515 42.5794C47.0815 42.3751 47.0815 42.3751 46.908 42.1668C46.2462 41.3868 45.5549 40.6339 44.868 39.8773C44.472 39.39 44.472 39.39 44.472 38.97C44.7276 38.9597 44.9832 38.9494 45.2466 38.9388C45.5834 38.9231 45.9202 38.9072 46.257 38.8913C46.4253 38.8848 46.5936 38.8783 46.767 38.8716C47.0116 38.8594 47.0116 38.8594 47.2611 38.847C47.4854 38.8371 47.4854 38.8371 47.7143 38.827C48.3602 38.7263 48.8227 38.5308 49.215 37.9856C49.4333 37.2927 49.4421 36.7544 49.368 36.03C49.0017 35.4518 48.7453 35.0795 48.144 34.77C47.7297 34.7376 47.3145 34.7175 46.8993 34.7036C46.6766 34.6956 46.454 34.6875 46.2246 34.6793C45.9408 34.6703 45.6569 34.6612 45.3645 34.6519C44.0139 34.6064 44.0139 34.6064 42.636 34.56C42.636 38.025 42.636 41.49 42.636 45.06C41.9628 45.06 41.2896 45.06 40.596 45.06C40.3232 44.4984 40.3759 44.0835 40.3876 43.455C40.3937 43.0829 40.3937 43.0829 40.4 42.7034C40.4055 42.4345 40.411 42.1657 40.4167 41.8887C40.4215 41.6143 40.4263 41.3398 40.4313 41.0571C40.4441 40.3273 40.4582 39.5974 40.4726 38.8676C40.487 38.123 40.5002 37.3784 40.5135 36.6338C40.5398 35.1725 40.5675 33.7112 40.596 32.25Z" fill="#FBFBFB"/>
<path d="M53.448 31.62C54.207 31.7403 54.5528 32.0504 55.087 32.6057C55.2462 32.7696 55.4054 32.9336 55.5695 33.1025C55.7393 33.2805 55.9091 33.4586 56.0841 33.6421C56.2595 33.8236 56.4349 34.005 56.6157 34.192C57.1763 34.7726 57.7346 35.3553 58.293 35.9381C58.6724 36.3319 59.052 36.7255 59.4317 37.119C60.3628 38.0843 61.2921 39.0515 62.22 40.02C62.6344 39.5934 62.4764 38.7227 62.4886 38.1357C62.4928 37.9682 62.497 37.8007 62.5014 37.6281C62.5148 37.0911 62.5268 36.554 62.5388 36.0169C62.5476 35.6536 62.5565 35.2903 62.5655 34.9271C62.5873 34.0347 62.608 33.1424 62.628 32.25C63.3012 32.25 63.9744 32.25 64.668 32.25C64.7353 36.5466 64.8026 40.8432 64.872 45.27C64.67 45.3393 64.4681 45.4086 64.26 45.48C64.26 45.3414 64.26 45.2028 64.26 45.06C64.1454 45.0102 64.0307 44.9604 63.9126 44.9091C63.3381 44.5792 62.9382 44.1749 62.475 43.695C62.312 43.5282 62.1489 43.3615 61.9809 43.1897C61.608 42.75 61.608 42.75 61.608 42.33C61.4943 42.2811 61.3807 42.2323 61.2636 42.1819C60.6698 41.8395 60.2572 41.4139 59.7752 40.9191C59.4892 40.6255 59.4892 40.6255 59.1975 40.326C59.0993 40.2241 59.0012 40.1222 58.9001 40.0172C58.5986 39.7046 58.2949 39.3942 57.991 39.084C57.8014 38.8883 57.6118 38.6926 57.4164 38.4909C57.2422 38.3111 57.0679 38.1312 56.8883 37.9458C56.508 37.5 56.508 37.5 56.508 37.08C56.2387 37.08 55.9694 37.08 55.692 37.08C55.6247 39.7134 55.5574 42.3468 55.488 45.06C54.8821 45.06 54.2762 45.06 53.652 45.06C53.448 44.85 53.448 44.85 53.4235 44.3225C53.4239 44.0879 53.4244 43.8534 53.4248 43.6117C53.4249 43.3468 53.4249 43.082 53.4249 42.8091C53.4259 42.5179 53.427 42.2266 53.4281 41.9354C53.4285 41.6391 53.4288 41.3428 53.429 41.0465C53.4297 40.2652 53.4317 39.4839 53.434 38.7027C53.4361 37.906 53.437 37.1093 53.438 36.3126C53.4402 34.7484 53.4437 33.1842 53.448 31.62Z" fill="#FCFCFC"/>
<path d="M24.429 33.3394C25.6413 34.2923 26.5177 35.8354 26.8228 37.3655C27.0282 39.2688 26.7598 40.9634 25.6108 42.5236C25.0167 43.2675 25.0167 43.2675 24.684 43.59C24.5494 43.59 24.4147 43.59 24.276 43.59C24.276 43.7286 24.276 43.8672 24.276 44.01C24.017 44.1462 23.7577 44.2817 23.4982 44.4169C23.2817 44.5302 23.2817 44.5302 23.0608 44.6457C21.5628 45.3799 19.3038 45.3327 17.7097 44.8721C17.2125 44.64 17.2125 44.64 16.524 44.22C16.524 44.0814 16.524 43.9428 16.524 43.8C16.4104 43.7524 16.2968 43.7047 16.1797 43.6556C14.9114 42.9146 14.3063 41.8278 13.872 40.44C13.4839 38.648 13.6204 36.733 14.5222 35.1244C16.8842 31.6478 21.0374 31.144 24.429 33.3394ZM16.728 35.61C15.8876 36.8609 15.61 37.8772 15.708 39.39C15.9893 40.861 16.7696 41.7088 17.952 42.54C19.1543 43.2618 20.2841 43.2802 21.624 42.96C22.9407 42.5011 23.8425 41.7596 24.4736 40.4498C24.9789 39.1881 25.0485 38.2417 24.5437 36.9619C23.9015 35.5936 23.0589 34.8614 21.7045 34.2926C19.9162 33.734 18.0445 34.2548 16.728 35.61Z" fill="#FBFBFB"/>
<path d="M72.9428 32.1844C73.1654 32.1864 73.388 32.1884 73.6173 32.1905C75.2415 32.2145 75.2415 32.2145 75.48 32.46C75.5 32.7744 75.5065 33.0899 75.5055 33.405C75.5063 33.6616 75.5063 33.6616 75.5071 33.9234C75.48 34.35 75.48 34.35 75.276 34.56C74.9123 34.583 74.5478 34.5927 74.1835 34.5969C73.8476 34.6044 73.8476 34.6044 73.5049 34.6121C73.0322 34.621 72.5593 34.6276 72.0865 34.6318C71.1039 34.6572 70.3387 34.6997 69.4261 35.094C68.7777 35.7997 68.698 36.3391 68.544 37.29C68.8483 37.2883 68.8483 37.2883 69.1587 37.2867C69.9088 37.2829 70.6589 37.2805 71.409 37.2785C71.7341 37.2774 72.0593 37.276 72.3844 37.2742C72.8507 37.2716 73.3171 37.2704 73.7835 37.2695C73.9297 37.2684 74.0759 37.2673 74.2265 37.2662C74.5764 37.2662 74.9263 37.277 75.276 37.29C75.8071 37.8367 75.48 38.8268 75.48 39.6C73.1238 39.6 70.7676 39.6 68.34 39.6C68.8071 41.3813 68.8071 41.3813 69.972 42.33C70.5807 42.5389 71.0329 42.5811 71.6701 42.6064C71.9847 42.6196 71.9847 42.6196 72.3056 42.6331C72.5243 42.6414 72.743 42.6496 72.9683 42.6581C73.1893 42.6672 73.4103 42.6763 73.638 42.6856C74.184 42.7079 74.73 42.7293 75.276 42.75C75.5378 43.5584 75.4936 44.2089 75.48 45.06C74.6768 45.0909 73.8738 45.1093 73.0703 45.1256C72.7336 45.1388 72.7336 45.1388 72.3901 45.1523C70.7816 45.1767 69.5044 44.9143 68.136 44.01C66.5835 42.4542 66.073 40.8613 66.0195 38.6681C66.0737 36.5202 66.4389 35.1512 67.8053 33.5116C69.3851 32.2659 71.0088 32.1297 72.9428 32.1844Z" fill="#FBFBFB"/>
<path d="M28.356 32.25C28.9619 32.25 29.5678 32.25 30.192 32.25C30.409 33.1435 30.4309 33.9677 30.439 34.8807C30.4448 35.2369 30.4506 35.593 30.4566 35.9492C30.465 36.5086 30.4725 37.068 30.4779 37.6275C30.4835 38.1689 30.4929 38.7101 30.5028 39.2514C30.5034 39.4179 30.5041 39.5844 30.5048 39.7559C30.5255 40.7155 30.6196 41.3352 31.212 42.12C32.0097 42.7769 32.8573 42.958 33.864 42.96C34.999 42.762 35.5767 42.3983 36.312 41.49C36.6475 40.9006 36.7725 40.4645 36.785 39.7835C36.7891 39.6154 36.7932 39.4473 36.7973 39.2741C36.7997 39.0947 36.802 38.9153 36.8045 38.7305C36.8084 38.5452 36.8124 38.36 36.8164 38.1691C36.8286 37.5786 36.8381 36.9881 36.8475 36.3975C36.8553 35.9966 36.8633 35.5958 36.8714 35.1949C36.891 34.2133 36.9081 33.2317 36.924 32.25C37.5299 32.25 38.1358 32.25 38.76 32.25C38.7853 33.5313 38.8038 34.8124 38.816 36.0939C38.8211 36.5292 38.8281 36.9645 38.8369 37.3997C38.8494 38.0279 38.8551 38.6559 38.8596 39.2842C38.8649 39.4765 38.8701 39.6689 38.8756 39.8671C38.8762 41.4981 38.3368 42.5962 37.3702 43.8656C35.7369 45.1627 34.2291 45.2872 32.2214 45.1196C31.335 44.9867 30.6727 44.5819 29.988 44.01C29.8323 43.8887 29.6766 43.7674 29.5162 43.6425C28.4859 42.2282 28.2374 40.8535 28.2763 39.1201C28.2775 38.9224 28.2786 38.7246 28.2798 38.5209C28.2843 37.8961 28.2946 37.2716 28.305 36.6469C28.3091 36.2205 28.3128 35.794 28.3162 35.3676C28.3251 34.3283 28.3392 33.2892 28.356 32.25Z" fill="#FBFBFB"/>
<path d="M48.96 26.16C54.3456 26.16 59.7312 26.16 65.28 26.16C64.872 26.58 64.872 26.58 64.3365 26.6062C64.1766 26.5976 64.0167 26.5889 63.852 26.58C63.9193 26.7186 63.9866 26.8572 64.056 27C63.854 27 63.6521 27 63.444 27C63.444 27.3465 63.444 27.693 63.444 28.05C63.7461 28.0654 63.7461 28.0654 64.0544 28.0812C64.3158 28.0969 64.5772 28.1126 64.8465 28.1287C65.1068 28.1434 65.3672 28.158 65.6354 28.173C66.3 28.26 66.3 28.26 66.708 28.68C65.8451 28.6206 64.9824 28.5587 64.1197 28.4962C63.8793 28.4797 63.6388 28.4632 63.391 28.4462C61.9319 28.3392 60.506 28.1662 59.0653 27.9031C58.5502 27.7908 58.5502 27.7908 58.14 28.05C57.938 27.9807 57.7361 27.9114 57.528 27.84C55.4973 27.6312 53.4499 27.581 51.4107 27.5244C50.9655 27.512 50.5204 27.4983 50.0752 27.4844C49.1596 27.457 48.2439 27.4364 47.328 27.42C47.1683 27.4171 47.0087 27.4141 46.8442 27.4111C44.1143 27.3678 41.4173 27.5189 38.6962 27.735C36.1962 27.9317 33.7205 28.1041 31.212 28.05C32.1053 27.2881 32.8465 27.3212 33.9863 27.2908C34.7319 27.2611 35.0623 27.2276 35.7 26.79C36.1933 26.7104 36.1933 26.7104 36.7582 26.6719C37.4038 26.6253 38.036 26.5666 38.6772 26.4735C39.6295 26.3498 40.5704 26.3397 41.5291 26.3421C41.7101 26.3419 41.891 26.3417 42.0774 26.3415C42.4571 26.3414 42.8368 26.3417 43.2166 26.3426C43.7967 26.3438 44.3768 26.3426 44.9569 26.3413C45.3273 26.3414 45.6977 26.3417 46.0681 26.3421C46.2407 26.3417 46.4133 26.3413 46.5911 26.3408C47.4078 26.3442 48.1629 26.3706 48.96 26.58C48.96 26.4414 48.96 26.3028 48.96 26.16Z" fill="#EF7F0D"/>
<path d="M77.724 32.25C79.0755 32.1975 79.0755 32.1975 79.764 32.67C79.7807 33.1499 79.7807 33.1499 79.7258 33.7331C79.6863 35.0765 80.1215 35.8879 80.988 36.87C81.2542 37.0877 81.5249 37.3001 81.804 37.5C83.1646 36.2571 83.1646 36.2571 83.844 34.56C84.9196 35.0564 84.9196 35.0564 85.272 35.61C85.3449 36.5297 85.2031 36.9003 84.6504 37.6354C84.125 38.2374 83.5838 38.8178 83.028 39.39C82.9982 39.7918 82.9816 40.1947 82.9706 40.5975C82.963 40.8422 82.9554 41.0869 82.9475 41.3391C82.9404 41.5968 82.9333 41.8545 82.926 42.12C82.912 42.6275 82.8972 43.135 82.8814 43.6425C82.8721 43.982 82.8721 43.982 82.8627 44.3283C82.824 44.85 82.824 44.85 82.62 45.06C82.2503 45.0879 82.2503 45.0879 81.804 45.0863C81.6567 45.0868 81.5095 45.0873 81.3578 45.0879C80.988 45.06 80.988 45.06 80.784 44.85C80.7717 44.4802 80.7717 44.11 80.7768 43.7401C80.7756 43.5115 80.7745 43.2829 80.7732 43.0474C80.7719 42.5661 80.7761 42.0848 80.786 41.6036C80.7693 40.3301 80.6993 39.5663 79.7967 38.6484C79.6552 38.5278 79.5138 38.4072 79.368 38.283C78.4881 37.5225 77.8108 36.5758 77.6732 35.3775C77.6213 34.3316 77.6604 33.2945 77.724 32.25Z" fill="#FAFAFA"/>
<path d="M10.2 32.25C10.8059 32.25 11.4118 32.25 12.036 32.25C12.0563 33.5014 12.071 34.7527 12.0808 36.0042C12.0849 36.4293 12.0905 36.8544 12.0976 37.2794C12.1075 37.893 12.1121 38.5064 12.1157 39.1201C12.1199 39.3079 12.1241 39.4956 12.1285 39.6891C12.129 41.2802 11.7397 42.5365 10.7355 43.7606C10.5588 43.9122 10.3821 44.0638 10.2 44.22C10.0275 44.3803 9.85499 44.5405 9.67725 44.7056C8.64231 45.2286 7.66083 45.1279 6.528 45.06C6.528 44.367 6.528 43.674 6.528 42.96C6.68052 42.9346 6.83304 42.9091 6.99019 42.8829C7.29155 42.8301 7.29155 42.8301 7.599 42.7762C7.7978 42.7421 7.99661 42.708 8.20144 42.6729C8.95252 42.5191 8.95252 42.5191 9.588 42.12C9.9563 40.8938 10.0628 39.7621 10.0805 38.4844C10.0844 38.305 10.0884 38.1256 10.0924 37.9407C10.1045 37.3738 10.1141 36.8069 10.1235 36.24C10.1313 35.8531 10.1393 35.4662 10.1474 35.0793C10.1669 34.1362 10.1841 33.1931 10.2 32.25Z" fill="#FBFCFB"/>
<path d="M27.948 27.42C27.3801 27.7415 26.9032 27.909 26.2618 27.9967C26.0969 28.0209 25.932 28.0451 25.7622 28.0701C25.4206 28.1175 25.079 28.1645 24.7374 28.2112C23.6233 28.3757 22.6649 28.6568 21.624 29.1C23.512 29.0189 25.3856 28.9247 27.2595 28.6669C28.9879 28.4315 30.6953 28.4296 32.436 28.47C32.436 28.5393 32.436 28.6086 32.436 28.68C32.2638 28.6955 32.2638 28.6955 32.0882 28.7114C26.188 29.2463 20.3277 29.8716 14.4809 30.8541C13.3272 31.048 12.1717 31.2291 11.016 31.41C10.9487 31.2021 10.8814 30.9942 10.812 30.78C13.0335 29.9796 15.2971 29.456 17.6077 29.0081C17.9487 28.9414 17.9487 28.9414 18.2966 28.8734C19.8503 28.5715 21.4056 28.2795 22.9627 27.9975C23.1505 27.9633 23.3382 27.929 23.5316 27.8938C26.4666 27.3708 26.4666 27.3708 27.948 27.42Z" fill="#CB8533"/>
<path d="M82.008 32.67C82.824 32.67 82.824 32.67 83.385 33.1688C83.844 33.72 83.844 33.72 83.844 34.14C84.4499 34.244 84.4499 34.244 85.068 34.35C85.1353 34.5579 85.2026 34.7658 85.272 34.98C85.4066 35.0493 85.5413 35.1186 85.68 35.19C86.1781 35.9307 86.1208 36.6234 86.088 37.5C87.27 37.106 87.27 37.106 88.434 36.66C89.4502 36.2416 90.4925 35.9039 91.545 35.5969C92.1277 35.4238 92.6679 35.2166 93.228 34.98C93.636 34.84 94.044 34.7 94.452 34.56C94.793 34.4226 95.1334 34.2835 95.472 34.14C94.0292 35.9435 91.689 36.5958 89.6198 37.3425C89.4211 37.4142 89.2225 37.4859 89.0178 37.5597C87.8474 37.9712 86.6945 38.3249 85.476 38.55C85.3414 38.4807 85.2067 38.4114 85.068 38.34C85.0775 38.1527 85.0869 37.9653 85.0967 37.7723C85.1041 37.5265 85.1114 37.2807 85.119 37.0275C85.1285 36.7839 85.1379 36.5402 85.1477 36.2892C85.123 35.6048 85.123 35.6048 84.7285 35.1424C84.2078 34.7355 83.6857 34.4218 83.1045 34.1138C82.0477 33.5508 82.0477 33.5508 81.6 33.09C81.7346 33.09 81.8693 33.09 82.008 33.09C82.008 32.9514 82.008 32.8128 82.008 32.67Z" fill="#E18127"/>
<path d="M54.1337 25.4911C54.7439 25.4911 55.3541 25.4897 55.9643 25.4868C59.9306 25.4684 63.8585 25.5837 67.8141 25.8939C69.0768 25.9909 70.3404 26.075 71.604 26.16C70.8603 26.9255 69.7559 26.7845 68.748 26.79C68.0463 26.7191 67.3513 26.6304 66.6532 26.5306C65.3673 26.3562 64.1048 26.3387 62.8092 26.3672C61.4616 26.3934 61.4616 26.3934 60.792 26.16C60.792 26.0214 60.792 25.8828 60.792 25.74C60.6551 25.7426 60.5182 25.7453 60.3771 25.748C59.0608 25.7732 57.7445 25.7979 56.4281 25.8221C55.7521 25.8346 55.076 25.8473 54.3999 25.8603C50.8862 25.9277 47.3743 25.9659 43.86 25.95C43.86 25.8807 43.86 25.8114 43.86 25.74C47.2839 25.5203 50.7046 25.4906 54.1337 25.4911Z" fill="#CC7F37"/>
<path d="M32.436 28.47C32.436 28.5393 32.436 28.6086 32.436 28.68C32.2638 28.6955 32.2638 28.6955 32.0882 28.7114C26.188 29.2463 20.3277 29.8716 14.4809 30.8541C13.3272 31.048 12.1717 31.2291 11.016 31.41C10.9487 31.2021 10.8814 30.9942 10.812 30.78C11.4527 30.3892 11.9063 30.3013 12.648 30.36C12.85 30.4293 13.0519 30.4986 13.26 30.57C13.6698 30.5452 13.6698 30.5452 14.1087 30.4601C14.2705 30.4319 14.4324 30.4038 14.5991 30.3748C14.8514 30.3285 14.8514 30.3285 15.1087 30.2813C15.3622 30.2374 15.3622 30.2374 15.6207 30.1927C16.5073 30.0502 16.5073 30.0502 17.34 29.73C17.6973 29.6934 18.0557 29.6672 18.4142 29.6455C19.6456 29.5565 20.8671 29.4219 22.0926 29.2698C22.2812 29.2467 22.4698 29.2236 22.6642 29.1998C23.4486 29.1035 24.233 29.0068 25.0171 28.9071C27.5037 28.5921 29.9299 28.3947 32.436 28.47Z" fill="#B67D3B"/>
<path d="M68.544 29.31C70.0271 29.2837 70.0271 29.2837 70.7561 29.4125C71.444 29.5273 72.1062 29.5505 72.8025 29.5725C74.5543 29.6825 76.0762 30.1869 77.724 30.78C78.0597 30.8853 78.3954 30.9904 78.7313 31.095C79.6699 31.4227 80.5943 31.8558 81.396 32.46C81.497 32.7718 81.497 32.7718 81.6 33.09C81.3412 32.999 81.3412 32.999 81.0773 32.9062C80.3712 32.6684 79.6633 32.4562 78.948 32.25C78.948 32.1114 78.948 31.9728 78.948 31.83C78.8359 31.8055 78.7238 31.7809 78.6082 31.7557C77.6666 31.5455 76.738 31.3094 75.8102 31.0422C73.417 30.3573 70.9952 29.9213 68.544 29.52C68.544 29.4507 68.544 29.3814 68.544 29.31Z" fill="#D68532"/>
<path d="M71.808 26.37C73.8661 26.2754 75.8605 26.6221 77.8897 26.9344C78.1688 26.9766 78.1688 26.9766 78.4535 27.0196C81.1732 27.4327 83.8455 27.9159 86.496 28.68C86.496 28.8186 86.496 28.9572 86.496 29.1C85.5416 29.0049 84.6155 28.8895 83.6782 28.68C82.6868 28.4624 81.7068 28.3865 80.6955 28.3322C80.172 28.26 80.172 28.26 79.56 27.84C78.2448 27.538 76.899 27.4092 75.5565 27.315C74.3696 27.2303 73.1585 27.1346 72.012 26.79C71.9447 26.6514 71.8774 26.5128 71.808 26.37Z" fill="#D6853A"/>
<path d="M41.973 25.9369C42.216 25.9388 42.459 25.9407 42.7093 25.9426C42.976 25.9463 42.976 25.9463 43.248 25.95C43.248 26.0193 43.248 26.0886 43.248 26.16C43.0396 26.1774 43.0396 26.1774 42.827 26.1952C42.198 26.2483 41.5691 26.3026 40.9403 26.3569C40.7216 26.3751 40.5029 26.3934 40.2776 26.4122C40.0679 26.4305 39.8582 26.4488 39.6421 26.4676C39.3521 26.4924 39.3521 26.4924 39.0562 26.5176C38.5289 26.566 38.5289 26.566 37.944 26.79C37.3728 26.8458 36.8017 26.8832 36.2291 26.9204C35.6529 26.9673 35.6529 26.9673 35.088 27.42C34.556 27.4704 34.0438 27.4983 33.511 27.507C33.2814 27.5131 33.2814 27.5131 33.0471 27.5193C32.5587 27.5318 32.0702 27.5416 31.5818 27.5512C31.2504 27.5593 30.919 27.5675 30.5876 27.5759C29.7758 27.596 28.9639 27.6137 28.152 27.63C28.152 27.4914 28.152 27.3528 28.152 27.21C29.5017 27.0639 30.8514 26.9183 32.2011 26.7729C32.6593 26.7235 33.1175 26.674 33.5757 26.6244C34.2381 26.5528 34.9005 26.4815 35.5629 26.4102C35.7645 26.3883 35.966 26.3664 36.1737 26.3439C40.1442 25.918 40.1442 25.918 41.973 25.9369Z" fill="#CF8732"/>
<path d="M61.455 28.1156C61.6295 28.1255 61.804 28.1354 61.9838 28.1456C66.813 28.4393 66.813 28.4393 68.748 28.89C68.6807 29.0286 68.6134 29.1672 68.544 29.31C67.0211 29.3482 65.5541 29.1964 64.0433 29.0081C62.0079 28.7638 59.9833 28.5636 57.936 28.47C57.936 28.4007 57.936 28.3314 57.936 28.26C59.1334 28.0729 60.2477 28.0413 61.455 28.1156Z" fill="#CD863C"/>
<path d="M41.616 27.63C41.616 27.6993 41.616 27.7686 41.616 27.84C40.8082 27.84 40.0003 27.84 39.168 27.84C39.168 27.9786 39.168 28.1172 39.168 28.26C36.9877 28.4138 34.8258 28.4995 32.64 28.47C32.64 28.4007 32.64 28.3314 32.64 28.26C33.1786 28.26 33.7171 28.26 34.272 28.26C34.272 28.1214 34.272 27.9828 34.272 27.84C36.7096 27.5318 39.1651 27.6101 41.616 27.63Z" fill="#D68836"/>
<path d="M95.064 34.14C95.1986 34.2093 95.3333 34.2786 95.472 34.35C95.2009 34.5438 94.9286 34.736 94.656 34.9275C94.5045 35.0347 94.3531 35.1419 94.197 35.2523C92.8984 36.0803 91.5516 36.6531 90.1043 37.1456C89.9416 37.2037 89.779 37.2618 89.6114 37.3216C89.455 37.3753 89.2987 37.429 89.1376 37.4844C88.9974 37.533 88.8572 37.5815 88.7127 37.6315C88.332 37.71 88.332 37.71 87.72 37.5C87.8983 37.431 87.8983 37.431 88.0802 37.3605C89.3069 36.8721 90.4756 36.3073 91.6446 35.6871C92.3704 35.3172 93.0946 35.024 93.8655 34.77C94.4817 34.5776 94.4817 34.5776 95.064 34.14Z" fill="#D58337"/>
<path d="M71.808 26.37C71.8753 26.4393 71.9426 26.5086 72.012 26.58C73.6201 26.9844 75.2604 27.1075 76.908 27.21C76.908 27.2793 76.908 27.3486 76.908 27.42C75.2461 27.5665 73.6679 27.6891 72.012 27.42C71.9447 27.2121 71.8774 27.0042 71.808 26.79C71.6103 26.8247 71.4125 26.8593 71.2088 26.895C68.8816 27.2317 68.8816 27.2317 67.932 26.58C68.1131 26.5837 68.1131 26.5837 68.2978 26.5874C69.4855 26.6013 70.6328 26.3028 71.808 26.37Z" fill="#ED8016"/>
<path d="M17.34 29.52C16.932 30.15 16.932 30.15 16.5648 30.2794C16.347 30.314 16.347 30.314 16.1248 30.3493C15.965 30.3757 15.8053 30.4021 15.6407 30.4293C15.39 30.4665 15.39 30.4665 15.1342 30.5044C14.9695 30.5316 14.8047 30.5588 14.635 30.5868C13.8306 30.715 13.0566 30.8158 12.24 30.78C12.3746 30.7107 12.5093 30.6414 12.648 30.57C12.648 30.4314 12.648 30.2928 12.648 30.15C16.353 29.1542 16.353 29.1542 17.34 29.52Z" fill="#CC8B3E"/>
<path d="M76.5 30.99C78.2303 31.0978 79.9718 31.3605 81.396 32.46C81.4633 32.6679 81.5306 32.8758 81.6 33.09C81.4275 33.0294 81.255 32.9687 81.0773 32.9063C80.3712 32.6684 79.6633 32.4562 78.948 32.25C78.948 32.1114 78.948 31.9728 78.948 31.83C78.8226 31.8046 78.6971 31.7791 78.5679 31.7529C78.3206 31.7001 78.3206 31.7001 78.0683 31.6463C77.9049 31.6121 77.7416 31.578 77.5734 31.5429C77.112 31.41 77.112 31.41 76.5 30.99Z" fill="#CA8038"/>
<path d="M91.392 30.36C92.2274 30.4914 92.8941 30.7727 93.6487 31.1606C93.8573 31.2659 94.0658 31.3712 94.2807 31.4797C94.8534 31.826 95.2553 32.1423 95.676 32.67C95.727 33.3525 95.727 33.3525 95.676 33.93C95.6297 33.8131 95.5834 33.6961 95.5357 33.5756C94.808 32.2557 93.7489 31.6977 92.412 31.2C91.8291 31.0404 91.8291 31.0404 91.392 30.99C91.392 30.7821 91.392 30.5742 91.392 30.36Z" fill="#D38541"/>
<path d="M13.26 30.57C13.7364 30.5027 14.2123 30.4322 14.688 30.36C15.2335 30.3423 15.774 30.3501 16.32 30.36C16.32 30.4293 16.32 30.4986 16.32 30.57C14.5697 30.8472 12.8194 31.1244 11.016 31.41C10.9487 31.2021 10.8814 30.9942 10.812 30.78C11.6732 30.2546 12.3177 30.2467 13.26 30.57Z" fill="#B6874F"/>
<path d="M55.284 36.03C56.1 36.45 56.1 36.45 56.508 37.08C56.2387 37.08 55.9694 37.08 55.692 37.08C55.6247 39.4362 55.5574 41.7924 55.488 44.22C55.4207 44.22 55.3534 44.22 55.284 44.22C55.284 41.5173 55.284 38.8146 55.284 36.03Z" fill="#F1F1F1"/>
<path d="M29.172 27.63C29.4413 27.7686 29.7106 27.9072 29.988 28.05C29.2095 28.5688 28.3871 28.562 27.489 28.6013C27.337 28.6094 27.185 28.6175 27.0284 28.6259C26.655 28.6456 26.2815 28.663 25.908 28.68C25.9753 28.4721 26.0426 28.2642 26.112 28.05C26.755 27.8294 27.1985 27.8254 27.8715 27.84C28.2369 27.8479 28.6026 27.8498 28.968 27.84C29.0353 27.7707 29.1026 27.7014 29.172 27.63Z" fill="#E58319"/>
<path d="M53.448 31.62C54.3267 31.8461 54.5271 32.0304 55.131 32.6831C55.2751 32.8372 55.4192 32.9912 55.5677 33.1499C55.676 33.2687 55.7844 33.3876 55.896 33.51C55.284 33.51 55.284 33.51 54.774 33.0112C54.6057 32.8293 54.4374 32.6474 54.264 32.46C54.062 32.3214 53.8601 32.1828 53.652 32.04C53.652 33.4953 53.652 34.9506 53.652 36.45C53.5847 36.45 53.5174 36.45 53.448 36.45C53.448 34.8561 53.448 33.2622 53.448 31.62Z" fill="#F3F3F3"/>
<path d="M67.728 28.68C69.3619 28.6162 70.7249 28.5732 72.216 29.31C71.4486 29.8373 70.8608 29.7223 69.972 29.5856C69.7238 29.5502 69.4755 29.5147 69.2197 29.4782C68.5612 29.3143 68.2233 29.1427 67.728 28.68Z" fill="#EB821D"/>
<path d="M64.464 28.47C64.9868 28.4997 65.5095 28.5305 66.0323 28.5619C66.1794 28.5701 66.3265 28.5784 66.4781 28.5869C67.2521 28.6342 67.9905 28.707 68.748 28.89C68.6807 29.0286 68.6134 29.1672 68.544 29.31C67.0383 29.3733 65.8207 29.191 64.464 28.47Z" fill="#DE8B39"/>
<path d="M28.356 32.25C28.8272 32.25 29.2985 32.25 29.784 32.25C29.6536 32.315 29.5231 32.3799 29.3888 32.4469C28.981 32.6352 28.981 32.6352 28.764 32.88C28.7316 33.3609 28.7127 33.8427 28.6995 34.3246C28.6952 34.4688 28.691 34.613 28.6866 34.7615C28.6732 35.2237 28.6612 35.6859 28.6493 36.1481C28.6404 36.4608 28.6315 36.7735 28.6226 37.0862C28.6007 37.8541 28.58 38.622 28.56 39.39C28.4927 39.39 28.4254 39.39 28.356 39.39C28.356 37.0338 28.356 34.6776 28.356 32.25Z" fill="#F3F3F3"/>
<path d="M87.312 29.1C88.7578 29.2145 90.0309 29.6479 91.392 30.15C91.392 30.2193 91.392 30.2886 91.392 30.36C90.1152 30.4405 89.2759 30.3092 88.128 29.73C87.8582 29.6517 87.5869 29.5766 87.312 29.52C87.312 29.3814 87.312 29.2428 87.312 29.1Z" fill="#D58337"/>
<path d="M77.724 32.25C79.0755 32.1975 79.0755 32.1975 79.764 32.67C79.6967 33.363 79.6294 34.056 79.56 34.77C79.4927 34.77 79.4254 34.77 79.356 34.77C79.2887 34.1463 79.2214 33.5226 79.152 32.88C78.7481 33.0879 78.7481 33.0879 78.336 33.3C78.134 33.404 78.134 33.404 77.928 33.51C77.8607 33.0942 77.7934 32.6784 77.724 32.25Z" fill="#F1F1EB"/>
<path d="M85.272 35.82C85.4066 35.8893 85.5413 35.9586 85.68 36.03C85.68 36.6537 85.68 37.2774 85.68 37.92C85.8735 37.8767 86.0671 37.8334 86.2665 37.7887C86.4769 37.7628 86.6873 37.7368 86.904 37.71C87.0386 37.8486 87.1733 37.9872 87.312 38.13C87.0149 38.2061 86.7173 38.2801 86.4195 38.3531C86.2538 38.3945 86.0882 38.436 85.9175 38.4786C85.476 38.55 85.476 38.55 85.068 38.34C85.0389 36.54 85.0389 36.54 85.272 35.82Z" fill="#CE955E"/>
<path d="M88.128 29.73C89.3265 29.9138 89.3265 29.9138 89.556 30.15C89.865 30.1987 90.1756 30.2366 90.4867 30.2681C90.6553 30.2857 90.8239 30.3033 90.9975 30.3214C91.1277 30.3342 91.2579 30.3469 91.392 30.36C91.392 30.5679 91.392 30.7758 91.392 30.99C91.7286 30.99 92.0652 30.99 92.412 30.99C92.412 31.0593 92.412 31.1286 92.412 31.2C92.0081 31.2 91.6042 31.2 91.188 31.2C91.1207 30.9921 91.0534 30.7842 90.984 30.57C90.6116 30.6415 90.6116 30.6415 90.2317 30.7144C89.5808 30.7999 89.3752 30.7907 88.7527 30.5044C88.332 30.15 88.332 30.15 88.128 29.73Z" fill="#ED7E17"/>
<path d="M20.808 29.52C20.808 29.6586 20.808 29.7972 20.808 29.94C19.095 30.2283 17.4448 30.4257 15.708 30.36C15.708 30.2907 15.708 30.2214 15.708 30.15C17.3789 29.6441 19.0701 29.52 20.808 29.52Z" fill="#B87430"/>
<path d="M94.656 32.25C95.1557 32.6841 95.4388 32.9533 95.5995 33.615C95.472 34.14 95.472 34.14 94.8855 34.6256C94.248 34.98 94.248 34.98 93.84 34.98C93.993 34.4681 93.993 34.4681 94.248 33.93C94.6815 33.7594 94.6815 33.7594 95.064 33.72C94.9967 33.5944 94.9294 33.4688 94.86 33.3394C94.656 32.88 94.656 32.88 94.656 32.25Z" fill="#EB8325"/>
<path d="M85.272 35.19C85.4066 35.19 85.5413 35.19 85.68 35.19C86.1545 35.9532 86.1212 36.6119 86.088 37.5C86.5592 37.5693 87.0305 37.6386 87.516 37.71C86.8639 37.9337 86.3619 37.9356 85.68 37.92C85.6676 37.7933 85.6553 37.6666 85.6426 37.5361C85.6169 37.2843 85.6169 37.2843 85.5908 37.0275C85.5742 36.8618 85.5576 36.6962 85.5406 36.5255C85.4808 36.067 85.3902 35.6358 85.272 35.19Z" fill="#E07C1F"/>
<path d="M92.412 36.24C91.7458 36.4925 91.0782 36.7407 90.4103 36.9881C90.2208 37.06 90.0313 37.1319 89.8361 37.2059C89.5629 37.3064 89.5629 37.3064 89.2843 37.4089C89.1165 37.4716 88.9488 37.5343 88.776 37.5989C88.332 37.71 88.332 37.71 87.72 37.5C87.8578 37.4442 87.9956 37.3885 88.1376 37.331C88.3195 37.2568 88.5015 37.1827 88.689 37.1062C88.9588 36.9966 88.9588 36.9966 89.2341 36.8848C89.7508 36.6722 89.7508 36.6722 90.1959 36.4311C90.9601 36.0468 91.6104 35.9649 92.412 36.24Z" fill="#CC8743"/>
<path d="M85.068 28.89C85.8085 28.89 86.549 28.89 87.312 28.89C87.2447 29.1672 87.1774 29.4444 87.108 29.73C86.906 29.6607 86.7041 29.5914 86.496 29.52C86.1549 29.657 85.8148 29.7969 85.476 29.94C85.3414 29.8707 85.2067 29.8014 85.068 29.73C85.068 29.4528 85.068 29.1756 85.068 28.89Z" fill="#EA7A16"/>
<path d="M43.248 25.74C43.3153 25.8786 43.3826 26.0172 43.452 26.16C43.5866 26.2293 43.7213 26.2986 43.86 26.37C43.3809 26.6166 43.0975 26.6042 42.5643 26.6005C42.3907 26.5998 42.2172 26.5992 42.0383 26.5985C41.8569 26.5967 41.6755 26.5949 41.4885 26.5931C41.3055 26.5922 41.1225 26.5912 40.9339 26.5903C40.4812 26.5878 40.0286 26.5843 39.576 26.58C39.576 26.5107 39.576 26.4414 39.576 26.37C40.7878 26.3007 41.9995 26.2314 43.248 26.16C43.248 26.0214 43.248 25.8828 43.248 25.74Z" fill="#E5902C"/>
<path d="M83.844 34.56C84.4276 34.8293 84.8872 35.0752 85.272 35.61C85.3102 36.1744 85.3102 36.1744 85.272 36.66C84.6788 36.194 84.2616 35.8348 83.844 35.19C83.844 34.9821 83.844 34.7742 83.844 34.56Z" fill="#FAF0D8"/>
<path d="M81.6637 27.7219C81.8439 27.7822 82.024 27.8426 82.2096 27.9048C82.4128 27.9767 82.4128 27.9767 82.62 28.05C82.62 28.1193 82.62 28.1886 82.62 28.26C82.2249 28.277 81.8296 28.2892 81.4342 28.2994C81.2141 28.3067 80.994 28.314 80.7673 28.3215C80.172 28.26 80.172 28.26 79.7871 27.9425C79.6747 27.7878 79.6747 27.7878 79.56 27.63C80.3702 27.4031 80.8708 27.4498 81.6637 27.7219Z" fill="#EE8B26"/>
<path d="M83.232 33.93C84.1408 34.1379 84.1408 34.1379 85.068 34.35C85.1353 34.7658 85.2026 35.1816 85.272 35.61C85.1247 35.4844 84.9775 35.3588 84.8257 35.2294C84.2678 34.7637 84.2678 34.7637 83.6782 34.4156C83.531 34.3247 83.3837 34.2337 83.232 34.14C83.232 34.0707 83.232 34.0014 83.232 33.93Z" fill="#D78739"/>
<path d="M78.948 31.83C80.6193 31.9035 80.6193 31.9035 81.3067 32.4731C81.4035 32.6074 81.5003 32.7417 81.6 32.88C81.398 32.9839 81.398 32.9839 81.192 33.09C81.0405 32.9947 80.8891 32.8994 80.733 32.8012C80.1235 32.4305 79.6454 32.3335 78.948 32.25C78.948 32.1114 78.948 31.9728 78.948 31.83Z" fill="#C18C55"/>
<path d="M24.276 28.05C24.7472 28.1193 25.2185 28.1886 25.704 28.26C25.6367 28.5372 25.5694 28.8144 25.5 29.1C24.9614 29.0307 24.4229 28.9614 23.868 28.89C24.0026 28.6128 24.1373 28.3356 24.276 28.05Z" fill="#DE8422"/>
<path d="M39.372 26.58C38.6211 27.0953 38.0575 27.0479 37.1917 27.0263C36.977 27.0234 36.977 27.0234 36.7578 27.0205C36.4052 27.0156 36.0526 27.008 35.7 27C35.7 26.9307 35.7 26.8614 35.7 26.79C35.8549 26.7773 36.0098 26.7646 36.1694 26.7514C36.3721 26.7339 36.5749 26.7163 36.7837 26.6981C36.9849 26.6811 37.1861 26.664 37.3934 26.6464C38.9805 26.4549 38.9805 26.4549 39.372 26.58Z" fill="#E5871D"/>
<path d="M10.608 30.99C10.6753 31.1286 10.7426 31.2672 10.812 31.41C10.224 31.6117 9.8535 31.6422 9.24375 31.6331C8.99643 31.6303 8.99643 31.6303 8.74411 31.6274C8.55595 31.6237 8.55595 31.6237 8.364 31.62C9.15634 31.0762 9.6752 30.964 10.608 30.99Z" fill="#C6B89B"/>
<path d="M14.28 30.15C14.28 30.2886 14.28 30.4272 14.28 30.57C13.6068 30.6393 12.9336 30.7086 12.24 30.78C12.3746 30.7107 12.5093 30.6414 12.648 30.57C12.648 30.4314 12.648 30.2928 12.648 30.15C13.2707 29.9439 13.6573 29.9439 14.28 30.15Z" fill="#D79A4E"/>
<path d="M80.172 31.62C80.5128 31.7239 80.5128 31.7239 80.8605 31.83C81.5377 32.0586 81.5377 32.0586 82.008 32.04C82.008 32.3865 82.008 32.733 82.008 33.09C81.806 33.0207 81.6041 32.9514 81.396 32.88C81.396 32.7414 81.396 32.6028 81.396 32.46C81.2319 32.3994 81.0678 32.3387 80.8987 32.2762C80.376 32.04 80.376 32.04 80.172 31.62Z" fill="#E47A18"/>
</svg>
