<svg width="102" height="105" viewBox="0 0 102 105" fill="none" xmlns="http://www.w3.org/2000/svg">
<path d="M54.8075 40.4785C55.2618 40.4775 55.7161 40.4758 56.1704 40.474C60.0673 40.461 63.929 40.5922 67.8154 40.8946C68.8491 40.9731 69.8835 41.0411 70.918 41.1092C72.6271 41.2357 74.3254 41.4735 76.0242 41.7C76.4674 41.7586 76.9108 41.8157 77.3544 41.8708C92.4367 43.7591 92.4367 43.7591 95.676 47.6699C95.778 48.2737 95.778 48.2737 95.676 48.9299C93.3485 51.6456 88.8427 52.9251 85.476 53.5499C85.3414 53.4806 85.2067 53.4113 85.068 53.3399C85.068 52.9241 85.068 52.5083 85.068 52.0799C84.9378 52.2291 84.8077 52.3783 84.6735 52.5319C84.505 52.7249 84.3364 52.918 84.1628 53.1168C83.9947 53.3093 83.8267 53.5017 83.6535 53.7001C83.232 54.1799 83.232 54.1799 83.028 54.3899C82.9982 54.7917 82.9816 55.1946 82.9706 55.5974C82.963 55.8422 82.9554 56.0869 82.9475 56.339C82.9369 56.7256 82.9369 56.7256 82.926 57.1199C82.912 57.6275 82.8972 58.135 82.8814 58.6424C82.8752 58.8687 82.869 59.0951 82.8626 59.3282C82.824 59.8499 82.824 59.8499 82.62 60.0599C82.2503 60.0878 82.2503 60.0878 81.804 60.0862C81.6567 60.0867 81.5095 60.0873 81.3577 60.0878C80.988 60.0599 80.988 60.0599 80.784 59.8499C80.7717 59.4802 80.7717 59.11 80.7768 58.7401C80.7757 58.5114 80.7745 58.2828 80.7732 58.0473C80.7719 57.566 80.776 57.0847 80.786 56.6035C80.7693 55.33 80.6993 54.5663 79.7967 53.6484C79.6552 53.5278 79.5138 53.4072 79.368 53.2829C78.4881 52.5224 77.8108 51.5757 77.6732 50.3775C77.6213 49.3316 77.6604 48.2944 77.724 47.2499C78.1279 47.2499 78.5318 47.2499 78.948 47.2499C78.948 47.1113 78.948 46.9727 78.948 46.8299C78.8359 46.8054 78.7238 46.7809 78.6082 46.7556C77.6671 46.5456 76.739 46.31 75.812 46.0424C72.2532 45.0261 68.6364 44.5039 64.974 44.0737C64.8333 44.0568 64.6926 44.0399 64.5477 44.0225C58.9437 43.357 53.3435 43.1802 47.7085 43.1932C47.1917 43.1943 46.6748 43.1948 46.158 43.1953C40.9168 43.2021 35.7103 43.3357 30.4892 43.8421C29.9773 43.891 29.4651 43.9369 28.9529 43.9819C23.9658 44.4222 19.0312 45.1117 14.089 45.9214C13.0652 46.0881 12.0406 46.2486 11.016 46.4099C10.9487 46.202 10.8814 45.9941 10.812 45.7799C13.0334 44.9796 15.2971 44.4557 17.6078 44.0081C17.8385 43.9631 18.0692 43.9182 18.3069 43.8719C19.0044 43.7369 19.7022 43.6034 20.4 43.4699C20.5966 43.4317 20.7932 43.3935 20.9958 43.3541C27.3995 42.1135 33.9023 41.4912 40.392 40.9499C40.5479 40.9368 40.7039 40.9236 40.8645 40.91C45.5063 40.5228 50.1531 40.4876 54.8075 40.4785ZM79.152 47.0399C79.356 47.4599 79.356 47.4599 79.356 47.4599L79.152 47.0399ZM79.56 47.2499C79.4242 48.9247 79.4209 50.1288 80.4437 51.4893C80.8611 51.9561 81.2933 52.3543 81.804 52.7099C82.1088 52.4247 82.4099 52.135 82.7093 51.8437C82.8773 51.6829 83.0453 51.5221 83.2185 51.3564C83.7006 50.7428 83.7838 50.3368 83.844 49.5599C83.0966 48.9087 82.3344 48.4097 81.4725 47.9324C81.2427 47.8036 81.0128 47.6747 80.776 47.542C80.1909 47.2053 80.1909 47.2053 79.56 47.2499Z" fill="#F47B07"/>
<path d="M54.8075 40.4785C55.2618 40.4775 55.7161 40.4758 56.1704 40.474C60.0658 40.461 63.9258 40.5926 67.8106 40.8941C69.0746 40.9903 70.3393 41.0747 71.604 41.1599C70.8729 41.9126 69.7421 41.7619 68.748 41.7899C68.3065 41.757 67.8759 41.6992 67.4379 41.6341C66.2507 41.5119 65.0438 41.5654 63.852 41.5799C63.9193 41.7185 63.9866 41.8571 64.056 41.9999C63.854 41.9999 63.6521 41.9999 63.444 41.9999C63.444 42.3464 63.444 42.6929 63.444 43.0499C63.6218 43.0578 63.7995 43.0656 63.9827 43.0737C65.6375 43.1677 67.1569 43.413 68.748 43.8899C68.6807 44.0285 68.6134 44.1671 68.544 44.3099C67.3228 44.3388 66.1538 44.2642 64.9418 44.11C59.1987 43.3886 53.4873 43.1799 47.7085 43.1932C47.1917 43.1943 46.6748 43.1948 46.158 43.1953C40.9168 43.2021 35.7103 43.3357 30.4892 43.8421C29.9773 43.891 29.4651 43.9369 28.9529 43.9819C23.9658 44.4222 19.0312 45.1117 14.089 45.9214C13.0652 46.0881 12.0406 46.2486 11.016 46.4099C10.9487 46.202 10.8814 45.9941 10.812 45.7799C13.0334 44.9796 15.2971 44.4557 17.6078 44.0081C17.8385 43.9631 18.0692 43.9182 18.3069 43.8719C19.0044 43.7369 19.7022 43.6034 20.4 43.4699C20.5966 43.4317 20.7932 43.3935 20.9958 43.3541C27.3995 42.1134 33.9023 41.4912 40.392 40.9499C40.5479 40.9368 40.7039 40.9236 40.8645 40.91C45.5063 40.5228 50.1531 40.4876 54.8075 40.4785Z" fill="#DA8329"/>
<path d="M40.596 47.25C41.5464 47.2343 42.4968 47.223 43.4473 47.2154C43.7698 47.2123 44.0923 47.208 44.4147 47.2025C46.4602 47.1685 48.3064 47.1562 50.1457 48.2082C51.0683 49.2663 51.6665 50.4607 51.7267 51.8963C51.6514 53.2681 51.1262 54.2021 50.2732 55.23C49.776 55.65 49.776 55.65 49.164 55.65C49.2395 56.6965 49.7587 57.184 50.4772 57.855C51.1899 58.5257 51.7331 59.0837 52.02 60.06C49.9569 60.3149 49.9569 60.3149 49.0963 59.745C48.6783 59.3105 48.3072 58.8606 47.94 58.38C47.7115 58.1122 47.482 57.8453 47.2515 57.5794C47.0815 57.3752 47.0815 57.3752 46.908 57.1668C46.2462 56.3868 45.5549 55.6339 44.868 54.8773C44.472 54.39 44.472 54.39 44.472 53.97C44.7276 53.9597 44.9832 53.9495 45.2466 53.9389C45.5834 53.9231 45.9202 53.9072 46.257 53.8913C46.4253 53.8848 46.5936 53.8783 46.767 53.8716C47.0116 53.8594 47.0116 53.8594 47.2611 53.847C47.4854 53.8371 47.4854 53.8371 47.7143 53.827C48.3602 53.7264 48.8227 53.5308 49.215 52.9857C49.4333 52.2928 49.4421 51.7545 49.368 51.03C49.0017 50.4518 48.7453 50.0795 48.144 49.77C47.7297 49.7377 47.3145 49.7176 46.8993 49.7036C46.6766 49.6956 46.454 49.6876 46.2246 49.6793C45.9408 49.6703 45.6569 49.6612 45.3645 49.6519C44.0139 49.6064 44.0139 49.6064 42.636 49.56C42.636 53.025 42.636 56.49 42.636 60.06C41.9628 60.06 41.2896 60.06 40.596 60.06C40.3232 59.4985 40.3759 59.0835 40.3876 58.455C40.3937 58.083 40.3937 58.083 40.4 57.7034C40.4055 57.4346 40.411 57.1657 40.4167 56.8887C40.4215 56.6143 40.4263 56.3399 40.4313 56.0571C40.4441 55.3273 40.4582 54.5975 40.4726 53.8677C40.487 53.1231 40.5002 52.3784 40.5135 51.6338C40.5398 50.1725 40.5675 48.7113 40.596 47.25Z" fill="black"/>
<path d="M53.448 46.6201C54.207 46.7404 54.5528 47.0505 55.087 47.6058C55.2462 47.7697 55.4054 47.9337 55.5695 48.1026C55.7393 48.2807 55.9091 48.4587 56.0841 48.6422C56.2595 48.8237 56.4349 49.0052 56.6157 49.1922C57.1763 49.7727 57.7346 50.3554 58.293 50.9382C58.6724 51.332 59.052 51.7256 59.4317 52.1191C60.3628 53.0845 61.2921 54.0516 62.22 55.0201C62.6344 54.5936 62.4764 53.7228 62.4886 53.1359C62.4928 52.9684 62.497 52.8008 62.5014 52.6283C62.5148 52.0912 62.5268 51.5541 62.5388 51.017C62.5476 50.6537 62.5565 50.2905 62.5655 49.9272C62.5873 49.0349 62.608 48.1425 62.628 47.2501C63.3012 47.2501 63.9744 47.2501 64.668 47.2501C64.7353 51.5467 64.8026 55.8433 64.872 60.2701C64.67 60.3394 64.4681 60.4087 64.26 60.4801C64.26 60.3415 64.26 60.2029 64.26 60.0601C64.1454 60.0103 64.0307 59.9605 63.9126 59.9092C63.3381 59.5793 62.9382 59.175 62.475 58.6951C62.312 58.5284 62.1489 58.3616 61.9809 58.1898C61.608 57.7501 61.608 57.7501 61.608 57.3301C61.4943 57.2813 61.3807 57.2324 61.2636 57.1821C60.6698 56.8396 60.2572 56.414 59.7752 55.9192C59.4892 55.6256 59.4892 55.6256 59.1975 55.3261C59.0993 55.2242 59.0012 55.1223 58.9001 55.0173C58.5986 54.7047 58.2949 54.3943 57.991 54.0841C57.8014 53.8884 57.6118 53.6927 57.4164 53.4911C57.2422 53.3112 57.0679 53.1313 56.8883 52.946C56.508 52.5001 56.508 52.5001 56.508 52.0801C56.2387 52.0801 55.9694 52.0801 55.692 52.0801C55.6247 54.7135 55.5574 57.3469 55.488 60.0601C54.8821 60.0601 54.2762 60.0601 53.652 60.0601C53.448 59.8501 53.448 59.8501 53.4235 59.3226C53.4239 59.088 53.4244 58.8535 53.4248 58.6118C53.4249 58.3469 53.4249 58.0821 53.4249 57.8092C53.4259 57.518 53.427 57.2268 53.4281 56.9355C53.4285 56.6392 53.4288 56.3429 53.429 56.0466C53.4297 55.2653 53.4317 54.484 53.434 53.7028C53.4361 52.9061 53.437 52.1094 53.438 51.3127C53.4402 49.7485 53.4437 48.1843 53.448 46.6201Z" fill="black"/>
<path d="M24.429 48.3394C25.6413 49.2924 26.5177 50.8354 26.8228 52.3655C27.0282 54.2688 26.7598 55.9634 25.6108 57.5236C25.0167 58.2676 25.0167 58.2676 24.684 58.59C24.5494 58.59 24.4147 58.59 24.276 58.59C24.276 58.7286 24.276 58.8672 24.276 59.01C24.017 59.1462 23.7577 59.2817 23.4982 59.4169C23.2817 59.5302 23.2817 59.5302 23.0608 59.6458C21.5628 60.3799 19.3038 60.3327 17.7097 59.8722C17.2125 59.64 17.2125 59.64 16.524 59.22C16.524 59.0814 16.524 58.9428 16.524 58.8C16.4104 58.7524 16.2968 58.7048 16.1797 58.6557C14.9114 57.9146 14.3063 56.8279 13.872 55.44C13.4839 53.6481 13.6204 51.733 14.5222 50.1244C16.8842 46.6479 21.0374 46.144 24.429 48.3394ZM16.728 50.61C15.8876 51.861 15.61 52.8772 15.708 54.39C15.9893 55.8611 16.7696 56.7088 17.952 57.54C19.1543 58.2618 20.2841 58.2802 21.624 57.96C22.9407 57.5011 23.8425 56.7597 24.4736 55.4499C24.9789 54.1882 25.0485 53.2418 24.5437 51.9619C23.9015 50.5936 23.0589 49.8614 21.7045 49.2926C19.9162 48.734 18.0445 49.2549 16.728 50.61Z" fill="black"/>
<path d="M72.9428 47.1845C73.1654 47.1865 73.388 47.1885 73.6173 47.1906C75.2415 47.2146 75.2415 47.2146 75.48 47.4601C75.5 47.7745 75.5065 48.09 75.5055 48.4051C75.5063 48.6617 75.5063 48.6617 75.5071 48.9235C75.48 49.3501 75.48 49.3501 75.276 49.5601C74.9123 49.583 74.5478 49.5928 74.1835 49.597C73.8476 49.6045 73.8476 49.6045 73.5049 49.6122C73.0322 49.6211 72.5593 49.6277 72.0865 49.6319C71.1039 49.6572 70.3387 49.6998 69.4261 50.0941C68.7777 50.7997 68.698 51.3391 68.544 52.2901C68.8483 52.2884 68.8483 52.2884 69.1587 52.2867C69.9088 52.283 70.6589 52.2805 71.409 52.2785C71.7341 52.2775 72.0593 52.2761 72.3844 52.2742C72.8507 52.2717 73.3171 52.2705 73.7835 52.2696C73.9297 52.2685 74.0759 52.2674 74.2265 52.2663C74.5764 52.2662 74.9263 52.2771 75.276 52.2901C75.8071 52.8368 75.48 53.8269 75.48 54.6001C73.1238 54.6001 70.7676 54.6001 68.34 54.6001C68.8071 56.3814 68.8071 56.3814 69.972 57.3301C70.5807 57.5389 71.0329 57.5812 71.6701 57.6065C71.9847 57.6197 71.9847 57.6197 72.3056 57.6332C72.5243 57.6414 72.743 57.6497 72.9683 57.6582C73.1893 57.6673 73.4103 57.6763 73.638 57.6857C74.184 57.708 74.73 57.7294 75.276 57.7501C75.5378 58.5585 75.4936 59.209 75.48 60.0601C74.6768 60.091 73.8738 60.1094 73.0703 60.1257C72.7336 60.1389 72.7336 60.1389 72.3901 60.1524C70.7816 60.1768 69.5044 59.9144 68.136 59.0101C66.5835 57.4542 66.073 55.8614 66.0195 53.6682C66.0737 51.5202 66.4389 50.1513 67.8053 48.5117C69.3851 47.266 71.0088 47.1298 72.9428 47.1845Z" fill="black"/>
<path d="M28.356 47.25C28.9619 47.25 29.5678 47.25 30.192 47.25C30.409 48.1435 30.4309 48.9677 30.439 49.8807C30.4448 50.2369 30.4506 50.593 30.4566 50.9492C30.465 51.5086 30.4725 52.068 30.4779 52.6275C30.4835 53.1689 30.4929 53.7101 30.5028 54.2514C30.5034 54.4179 30.5041 54.5844 30.5048 54.7559C30.5255 55.7155 30.6196 56.3352 31.212 57.12C32.0097 57.7769 32.8573 57.958 33.864 57.96C34.999 57.762 35.5767 57.3983 36.312 56.49C36.6475 55.9006 36.7725 55.4645 36.785 54.7835C36.7891 54.6154 36.7932 54.4473 36.7973 54.2741C36.7997 54.0947 36.802 53.9153 36.8045 53.7305C36.8084 53.5452 36.8124 53.36 36.8164 53.1691C36.8286 52.5786 36.8381 51.9881 36.8475 51.3975C36.8553 50.9966 36.8633 50.5958 36.8714 50.1949C36.891 49.2133 36.9081 48.2317 36.924 47.25C37.5299 47.25 38.1358 47.25 38.76 47.25C38.7853 48.5313 38.8038 49.8124 38.816 51.0939C38.8211 51.5292 38.8281 51.9645 38.8369 52.3997C38.8494 53.0279 38.8551 53.6559 38.8596 54.2842C38.8649 54.4765 38.8701 54.6689 38.8756 54.8671C38.8762 56.4981 38.3368 57.5962 37.3702 58.8656C35.7369 60.1627 34.2291 60.2872 32.2214 60.1196C31.335 59.9867 30.6727 59.5819 29.988 59.01C29.8323 58.8887 29.6766 58.7674 29.5162 58.6425C28.4859 57.2282 28.2374 55.8535 28.2763 54.1201C28.2775 53.9224 28.2786 53.7246 28.2798 53.5209C28.2843 52.8961 28.2946 52.2716 28.305 51.6469C28.3091 51.2205 28.3128 50.794 28.3162 50.3676C28.3251 49.3283 28.3392 48.2892 28.356 47.25Z" fill="black"/>
<path d="M48.96 41.1599C54.3456 41.1599 59.7312 41.1599 65.28 41.1599C64.872 41.5799 64.872 41.5799 64.3365 41.6062C64.1766 41.5975 64.0167 41.5888 63.852 41.5799C63.9193 41.7185 63.9866 41.8571 64.056 41.9999C63.854 41.9999 63.6521 41.9999 63.444 41.9999C63.444 42.3464 63.444 42.6929 63.444 43.0499C63.7461 43.0653 63.7461 43.0653 64.0544 43.0811C64.3158 43.0968 64.5772 43.1125 64.8465 43.1287C65.1068 43.1433 65.3672 43.1579 65.6354 43.173C66.3 43.2599 66.3 43.2599 66.708 43.6799C65.8451 43.6205 64.9824 43.5586 64.1197 43.4962C63.8793 43.4796 63.6388 43.4631 63.391 43.4461C61.9319 43.3391 60.506 43.1662 59.0653 42.903C58.5502 42.7907 58.5502 42.7907 58.14 43.0499C57.938 42.9806 57.7361 42.9113 57.528 42.8399C55.4973 42.6311 53.4499 42.5809 51.4107 42.5243C50.9655 42.5119 50.5204 42.4982 50.0752 42.4843C49.1596 42.4569 48.2439 42.4364 47.328 42.4199C47.1683 42.417 47.0087 42.414 46.8442 42.411C44.1143 42.3677 41.4173 42.5188 38.6962 42.7349C36.1962 42.9316 33.7205 43.104 31.212 43.0499C32.1053 42.288 32.8465 42.3211 33.9863 42.2907C34.7319 42.261 35.0623 42.2275 35.7 41.7899C36.1933 41.7103 36.1933 41.7103 36.7582 41.6718C37.4038 41.6252 38.036 41.5666 38.6772 41.4734C39.6295 41.3497 40.5704 41.3396 41.5291 41.342C41.7101 41.3418 41.891 41.3416 42.0774 41.3414C42.4571 41.3413 42.8368 41.3417 43.2166 41.3425C43.7967 41.3437 44.3768 41.3425 44.9569 41.3412C45.3273 41.3413 45.6977 41.3416 46.0681 41.342C46.2407 41.3416 46.4133 41.3412 46.5911 41.3407C47.4078 41.3441 48.1629 41.3705 48.96 41.5799C48.96 41.4413 48.96 41.3027 48.96 41.1599Z" fill="#EF7F0D"/>
<path d="M77.724 47.25C79.0755 47.1975 79.0755 47.1975 79.764 47.67C79.7807 48.1499 79.7807 48.1499 79.7258 48.7331C79.6863 50.0766 80.1215 50.888 80.988 51.87C81.2542 52.0877 81.5249 52.3001 81.804 52.5C83.1646 51.2571 83.1646 51.2571 83.844 49.56C84.9196 50.0564 84.9196 50.0564 85.272 50.61C85.3449 51.5297 85.2031 51.9003 84.6504 52.6354C84.125 53.2374 83.5838 53.8179 83.028 54.39C82.9982 54.7918 82.9816 55.1947 82.9706 55.5975C82.963 55.8422 82.9554 56.087 82.9475 56.3391C82.9404 56.5968 82.9333 56.8545 82.926 57.12C82.912 57.6275 82.8972 58.135 82.8814 58.6425C82.8721 58.982 82.8721 58.982 82.8627 59.3283C82.824 59.85 82.824 59.85 82.62 60.06C82.2503 60.0879 82.2503 60.0879 81.804 60.0863C81.6567 60.0868 81.5095 60.0874 81.3578 60.0879C80.988 60.06 80.988 60.06 80.784 59.85C80.7717 59.4803 80.7717 59.1101 80.7768 58.7401C80.7756 58.5115 80.7745 58.2829 80.7732 58.0474C80.7719 57.5661 80.7761 57.0848 80.786 56.6036C80.7693 55.3301 80.6993 54.5664 79.7967 53.6485C79.6552 53.5279 79.5138 53.4073 79.368 53.283C78.4881 52.5225 77.8108 51.5758 77.6732 50.3776C77.6213 49.3316 77.6604 48.2945 77.724 47.25Z" fill="black"/>
<path d="M10.2 47.25C10.8059 47.25 11.4118 47.25 12.036 47.25C12.0563 48.5014 12.071 49.7527 12.0808 51.0042C12.0849 51.4293 12.0905 51.8544 12.0976 52.2794C12.1075 52.893 12.1121 53.5064 12.1157 54.1201C12.1199 54.3079 12.1241 54.4956 12.1285 54.6891C12.129 56.2802 11.7397 57.5365 10.7355 58.7606C10.5588 58.9122 10.3821 59.0638 10.2 59.22C10.0275 59.3803 9.85499 59.5405 9.67725 59.7056C8.64231 60.2286 7.66083 60.1279 6.528 60.06C6.528 59.367 6.528 58.674 6.528 57.96C6.68052 57.9346 6.83304 57.9091 6.99019 57.8829C7.29155 57.8301 7.29155 57.8301 7.599 57.7762C7.7978 57.7421 7.99661 57.708 8.20144 57.6729C8.95252 57.5191 8.95252 57.5191 9.588 57.12C9.9563 55.8938 10.0628 54.7621 10.0805 53.4844C10.0844 53.305 10.0884 53.1256 10.0924 52.9407C10.1045 52.3738 10.1141 51.8069 10.1235 51.24C10.1313 50.8531 10.1393 50.4662 10.1474 50.0793C10.1669 49.1362 10.1841 48.1931 10.2 47.25Z" fill="black"/>
<path d="M27.948 42.42C27.3801 42.7416 26.9032 42.9091 26.2618 42.9967C26.0969 43.0209 25.932 43.0452 25.7622 43.0701C25.4206 43.1175 25.079 43.1646 24.7374 43.2112C23.6233 43.3757 22.6649 43.6569 21.624 44.1C23.512 44.019 25.3856 43.9247 27.2595 43.6669C28.9879 43.4316 30.6953 43.4297 32.436 43.47C32.436 43.5393 32.436 43.6086 32.436 43.68C32.2638 43.6956 32.2638 43.6956 32.0882 43.7114C26.188 44.2463 20.3277 44.8716 14.4809 45.8542C13.3272 46.048 12.1717 46.2291 11.016 46.41C10.9487 46.2021 10.8814 45.9942 10.812 45.78C13.0335 44.9797 15.2971 44.456 17.6077 44.0082C17.9487 43.9415 17.9487 43.9415 18.2966 43.8734C19.8503 43.5716 21.4056 43.2796 22.9627 42.9975C23.1505 42.9633 23.3382 42.9291 23.5316 42.8938C26.4666 42.3708 26.4666 42.3708 27.948 42.42Z" fill="#CB8533"/>
<path d="M82.008 47.6699C82.824 47.6699 82.824 47.6699 83.385 48.1687C83.844 48.7199 83.844 48.7199 83.844 49.1399C84.4499 49.2439 84.4499 49.2439 85.068 49.3499C85.1353 49.5578 85.2026 49.7657 85.272 49.9799C85.4066 50.0492 85.5413 50.1185 85.68 50.1899C86.1781 50.9306 86.1208 51.6233 86.088 52.4999C87.27 52.1059 87.27 52.1059 88.434 51.6599C89.4502 51.2415 90.4925 50.9038 91.545 50.5968C92.1277 50.4238 92.6679 50.2165 93.228 49.9799C93.636 49.8399 94.044 49.6999 94.452 49.5599C94.793 49.4226 95.1334 49.2835 95.472 49.1399C94.0292 50.9434 91.689 51.5957 89.6198 52.3424C89.4211 52.4141 89.2225 52.4858 89.0178 52.5597C87.8474 52.9711 86.6945 53.3248 85.476 53.5499C85.3414 53.4806 85.2067 53.4113 85.068 53.3399C85.0775 53.1526 85.0869 52.9653 85.0967 52.7723C85.1041 52.5265 85.1114 52.2807 85.119 52.0274C85.1285 51.7838 85.1379 51.5402 85.1477 51.2891C85.123 50.6047 85.123 50.6047 84.7285 50.1423C84.2078 49.7354 83.6857 49.4217 83.1045 49.1137C82.0477 48.5508 82.0477 48.5508 81.6 48.0899C81.7346 48.0899 81.8693 48.0899 82.008 48.0899C82.008 47.9513 82.008 47.8127 82.008 47.6699Z" fill="#E18127"/>
<path d="M54.1337 40.491C54.7439 40.4911 55.3541 40.4896 55.9643 40.4867C59.9306 40.4683 63.8585 40.5837 67.8141 40.8939C69.0768 40.9909 70.3404 41.0749 71.604 41.16C70.8603 41.9255 69.7559 41.7844 68.748 41.79C68.0463 41.7191 67.3513 41.6304 66.6532 41.5306C65.3673 41.3562 64.1048 41.3387 62.8092 41.3671C61.4616 41.3934 61.4616 41.3934 60.792 41.16C60.792 41.0214 60.792 40.8828 60.792 40.74C60.6551 40.7426 60.5182 40.7452 60.3771 40.7479C59.0608 40.7731 57.7445 40.7979 56.4281 40.8221C55.7521 40.8346 55.076 40.8472 54.3999 40.8602C50.8862 40.9276 47.3743 40.9658 43.86 40.95C43.86 40.8807 43.86 40.8114 43.86 40.74C47.2839 40.5202 50.7046 40.4905 54.1337 40.491Z" fill="#CC7F37"/>
<path d="M32.436 43.4701C32.436 43.5394 32.436 43.6087 32.436 43.6801C32.2638 43.6957 32.2638 43.6957 32.0882 43.7115C26.188 44.2464 20.3277 44.8717 14.4809 45.8543C13.3272 46.0481 12.1717 46.2292 11.016 46.4101C10.9487 46.2022 10.8814 45.9943 10.812 45.7801C11.4527 45.3893 11.9063 45.3014 12.648 45.3601C12.85 45.4294 13.0519 45.4987 13.26 45.5701C13.6698 45.5453 13.6698 45.5453 14.1087 45.4602C14.2705 45.432 14.4324 45.4039 14.5991 45.3749C14.8514 45.3286 14.8514 45.3286 15.1087 45.2814C15.3622 45.2375 15.3622 45.2375 15.6207 45.1928C16.5073 45.0503 16.5073 45.0503 17.34 44.7301C17.6973 44.6935 18.0557 44.6673 18.4142 44.6456C19.6456 44.5566 20.8671 44.422 22.0926 44.2699C22.2812 44.2468 22.4698 44.2237 22.6642 44.1999C23.4486 44.1036 24.233 44.0069 25.0171 43.9072C27.5037 43.5922 29.9299 43.3948 32.436 43.4701Z" fill="#B67D3B"/>
<path d="M68.544 44.31C70.0271 44.2837 70.0271 44.2837 70.7561 44.4125C71.444 44.5273 72.1062 44.5505 72.8025 44.5725C74.5543 44.6825 76.0762 45.1869 77.724 45.78C78.0597 45.8853 78.3954 45.9904 78.7313 46.095C79.6699 46.4227 80.5943 46.8558 81.396 47.46C81.497 47.7718 81.497 47.7718 81.6 48.09C81.3412 47.999 81.3412 47.999 81.0773 47.9062C80.3712 47.6684 79.6633 47.4561 78.948 47.25C78.948 47.1114 78.948 46.9728 78.948 46.83C78.8359 46.8054 78.7238 46.7809 78.6082 46.7556C77.6666 46.5455 76.738 46.3094 75.8102 46.0422C73.417 45.3572 70.9952 44.9213 68.544 44.52C68.544 44.4507 68.544 44.3814 68.544 44.31Z" fill="#D68532"/>
<path d="M71.808 41.3701C73.8661 41.2755 75.8605 41.6222 77.8897 41.9345C78.1688 41.9767 78.1688 41.9767 78.4535 42.0197C81.1732 42.4328 83.8455 42.916 86.496 43.6801C86.496 43.8187 86.496 43.9573 86.496 44.1001C85.5416 44.005 84.6155 43.8896 83.6782 43.6801C82.6868 43.4625 81.7068 43.3866 80.6955 43.3323C80.172 43.2601 80.172 43.2601 79.56 42.8401C78.2448 42.5381 76.899 42.4093 75.5565 42.3151C74.3696 42.2304 73.1585 42.1347 72.012 41.7901C71.9447 41.6515 71.8774 41.5129 71.808 41.3701Z" fill="#D6853A"/>
<path d="M41.973 40.9369C42.216 40.9388 42.459 40.9407 42.7093 40.9426C42.976 40.9463 42.976 40.9463 43.248 40.95C43.248 41.0193 43.248 41.0886 43.248 41.16C43.0396 41.1774 43.0396 41.1774 42.827 41.1952C42.198 41.2483 41.5691 41.3026 40.9403 41.3569C40.7216 41.3752 40.5029 41.3934 40.2776 41.4123C40.0679 41.4305 39.8582 41.4488 39.6421 41.4676C39.3521 41.4924 39.3521 41.4924 39.0562 41.5176C38.5289 41.566 38.5289 41.566 37.944 41.79C37.3728 41.8458 36.8017 41.8832 36.2291 41.9204C35.6529 41.9674 35.6529 41.9674 35.088 42.42C34.556 42.4705 34.0438 42.4983 33.511 42.507C33.2814 42.5131 33.2814 42.5131 33.0471 42.5193C32.5587 42.5318 32.0702 42.5416 31.5818 42.5513C31.2504 42.5593 30.919 42.5675 30.5876 42.5759C29.7758 42.596 28.9639 42.6137 28.152 42.63C28.152 42.4914 28.152 42.3528 28.152 42.21C29.5017 42.0639 30.8514 41.9183 32.2011 41.7729C32.6593 41.7235 33.1175 41.674 33.5757 41.6245C34.2381 41.5528 34.9005 41.4815 35.5629 41.4102C35.7645 41.3883 35.966 41.3664 36.1737 41.3439C40.1442 40.9181 40.1442 40.9181 41.973 40.9369Z" fill="#CF8732"/>
<path d="M61.455 43.1156C61.6295 43.1255 61.804 43.1353 61.9838 43.1455C66.813 43.4392 66.813 43.4392 68.748 43.89C68.6807 44.0286 68.6134 44.1672 68.544 44.31C67.0211 44.3482 65.5541 44.1963 64.0433 44.0081C62.0079 43.7638 59.9833 43.5635 57.936 43.47C57.936 43.4007 57.936 43.3314 57.936 43.26C59.1334 43.0728 60.2477 43.0413 61.455 43.1156Z" fill="#CD863C"/>
<path d="M41.616 42.63C41.616 42.6993 41.616 42.7686 41.616 42.84C40.8082 42.84 40.0003 42.84 39.168 42.84C39.168 42.9786 39.168 43.1172 39.168 43.26C36.9877 43.4138 34.8258 43.4995 32.64 43.47C32.64 43.4007 32.64 43.3314 32.64 43.26C33.1786 43.26 33.7171 43.26 34.272 43.26C34.272 43.1214 34.272 42.9828 34.272 42.84C36.7096 42.5318 39.1651 42.6101 41.616 42.63Z" fill="#D68836"/>
<path d="M95.064 49.1399C95.1986 49.2092 95.3333 49.2785 95.472 49.3499C95.2009 49.5437 94.9286 49.7359 94.656 49.9274C94.5045 50.0346 94.3531 50.1418 94.197 50.2522C92.8984 51.0802 91.5516 51.653 90.1043 52.1455C89.9416 52.2036 89.779 52.2616 89.6114 52.3215C89.455 52.3752 89.2987 52.4289 89.1376 52.4843C88.9974 52.5328 88.8572 52.5814 88.7127 52.6314C88.332 52.7099 88.332 52.7099 87.72 52.4999C87.8983 52.4309 87.8983 52.4309 88.0802 52.3604C89.3069 51.872 90.4756 51.3072 91.6446 50.687C92.3704 50.3171 93.0946 50.0239 93.8655 49.7699C94.4817 49.5775 94.4817 49.5775 95.064 49.1399Z" fill="#D58337"/>
<path d="M71.808 41.37C71.8753 41.4393 71.9426 41.5086 72.012 41.58C73.6201 41.9844 75.2604 42.1075 76.908 42.21C76.908 42.2793 76.908 42.3486 76.908 42.42C75.2461 42.5665 73.6679 42.6891 72.012 42.42C71.9447 42.2121 71.8774 42.0042 71.808 41.79C71.6103 41.8246 71.4125 41.8593 71.2088 41.895C68.8816 42.2316 68.8816 42.2316 67.932 41.58C68.1131 41.5836 68.1131 41.5836 68.2978 41.5874C69.4855 41.6013 70.6328 41.3028 71.808 41.37Z" fill="#ED8016"/>
<path d="M17.34 44.5201C16.932 45.1501 16.932 45.1501 16.5648 45.2795C16.347 45.3141 16.347 45.3141 16.1248 45.3494C15.965 45.3758 15.8053 45.4022 15.6407 45.4294C15.39 45.4666 15.39 45.4666 15.1342 45.5045C14.9695 45.5317 14.8047 45.5589 14.635 45.5869C13.8306 45.7151 13.0566 45.8159 12.24 45.7801C12.3746 45.7108 12.5093 45.6415 12.648 45.5701C12.648 45.4315 12.648 45.2929 12.648 45.1501C16.353 44.1543 16.353 44.1543 17.34 44.5201Z" fill="#CC8B3E"/>
<path d="M76.5 45.99C78.2303 46.0978 79.9718 46.3605 81.396 47.46C81.4633 47.6679 81.5306 47.8758 81.6 48.09C81.4275 48.0294 81.255 47.9687 81.0773 47.9062C80.3712 47.6684 79.6633 47.4562 78.948 47.25C78.948 47.1114 78.948 46.9728 78.948 46.83C78.8226 46.8045 78.6971 46.7791 78.5679 46.7529C78.3206 46.7001 78.3206 46.7001 78.0683 46.6462C77.9049 46.6121 77.7416 46.578 77.5734 46.5429C77.112 46.41 77.112 46.41 76.5 45.99Z" fill="#CA8038"/>
<path d="M91.392 45.3601C92.2274 45.4916 92.8941 45.7728 93.6487 46.1607C93.8573 46.266 94.0658 46.3713 94.2807 46.4798C94.8534 46.8261 95.2553 47.1424 95.676 47.6701C95.727 48.3526 95.727 48.3526 95.676 48.9301C95.6297 48.8132 95.5834 48.6962 95.5357 48.5757C94.808 47.2558 93.7489 46.6978 92.412 46.2001C91.8291 46.0405 91.8291 46.0405 91.392 45.9901C91.392 45.7822 91.392 45.5743 91.392 45.3601Z" fill="#D38541"/>
<path d="M13.26 45.5699C13.7364 45.5026 14.2123 45.4321 14.688 45.3599C15.2335 45.3422 15.774 45.35 16.32 45.3599C16.32 45.4292 16.32 45.4985 16.32 45.5699C14.5697 45.8471 12.8194 46.1243 11.016 46.4099C10.9487 46.202 10.8814 45.9941 10.812 45.7799C11.6732 45.2545 12.3177 45.2466 13.26 45.5699Z" fill="#B6874F"/>
<path d="M55.284 51.03C56.1 51.45 56.1 51.45 56.508 52.08C56.2387 52.08 55.9694 52.08 55.692 52.08C55.6247 54.4362 55.5574 56.7924 55.488 59.22C55.4207 59.22 55.3534 59.22 55.284 59.22C55.284 56.5173 55.284 53.8146 55.284 51.03Z" fill="#F1F1F1"/>
<path d="M29.172 42.6299C29.4413 42.7685 29.7106 42.9071 29.988 43.0499C29.2095 43.5687 28.3871 43.5619 27.489 43.6011C27.337 43.6093 27.185 43.6174 27.0284 43.6257C26.655 43.6455 26.2815 43.6629 25.908 43.6799C25.9753 43.472 26.0426 43.2641 26.112 43.0499C26.755 42.8292 27.1985 42.8253 27.8715 42.8399C28.2369 42.8478 28.6026 42.8497 28.968 42.8399C29.0353 42.7706 29.1026 42.7013 29.172 42.6299Z" fill="#E58319"/>
<path d="M53.448 46.6201C54.3267 46.8462 54.5271 47.0305 55.131 47.6832C55.2751 47.8373 55.4192 47.9913 55.5677 48.15C55.676 48.2688 55.7844 48.3877 55.896 48.5101C55.284 48.5101 55.284 48.5101 54.774 48.0114C54.6057 47.8295 54.4374 47.6475 54.264 47.4601C54.062 47.3215 53.8601 47.1829 53.652 47.0401C53.652 48.4954 53.652 49.9507 53.652 51.4501C53.5847 51.4501 53.5174 51.4501 53.448 51.4501C53.448 49.8562 53.448 48.2623 53.448 46.6201Z" fill="#F3F3F3"/>
<path d="M67.728 43.6799C69.3619 43.6161 70.7249 43.5731 72.216 44.3099C71.4486 44.8372 70.8608 44.7222 69.972 44.5855C69.7238 44.5501 69.4755 44.5146 69.2197 44.4781C68.5612 44.3142 68.2233 44.1426 67.728 43.6799Z" fill="#EB821D"/>
<path d="M64.464 43.47C64.9868 43.4997 65.5095 43.5305 66.0323 43.5618C66.1794 43.5701 66.3265 43.5784 66.4781 43.5869C67.2521 43.6342 67.9905 43.7069 68.748 43.89C68.6807 44.0286 68.6134 44.1672 68.544 44.31C67.0383 44.3732 65.8207 44.191 64.464 43.47Z" fill="#DE8B39"/>
<path d="M28.356 47.25C28.8272 47.25 29.2985 47.25 29.784 47.25C29.6536 47.315 29.5231 47.3799 29.3888 47.4469C28.981 47.6352 28.981 47.6352 28.764 47.88C28.7316 48.3609 28.7127 48.8427 28.6995 49.3246C28.6952 49.4688 28.691 49.613 28.6866 49.7615C28.6732 50.2237 28.6612 50.6859 28.6493 51.1481C28.6404 51.4608 28.6315 51.7735 28.6226 52.0862C28.6007 52.8541 28.58 53.622 28.56 54.39C28.4927 54.39 28.4254 54.39 28.356 54.39C28.356 52.0338 28.356 49.6776 28.356 47.25Z" fill="#F3F3F3"/>
<path d="M87.312 44.1001C88.7578 44.2146 90.0309 44.648 91.392 45.1501C91.392 45.2194 91.392 45.2887 91.392 45.3601C90.1152 45.4406 89.2759 45.3093 88.128 44.7301C87.8582 44.6517 87.5869 44.5767 87.312 44.5201C87.312 44.3815 87.312 44.2429 87.312 44.1001Z" fill="#D58337"/>
<path d="M77.724 47.25C79.0755 47.1975 79.0755 47.1975 79.764 47.67C79.6967 48.363 79.6294 49.056 79.56 49.77C79.4927 49.77 79.4254 49.77 79.356 49.77C79.2887 49.1463 79.2214 48.5226 79.152 47.88C78.7481 48.0879 78.7481 48.0879 78.336 48.3C78.134 48.404 78.134 48.404 77.928 48.51C77.8607 48.0942 77.7934 47.6784 77.724 47.25Z" fill="#F1F1EB"/>
<path d="M85.272 50.8201C85.4066 50.8894 85.5413 50.9587 85.68 51.0301C85.68 51.6538 85.68 52.2775 85.68 52.9201C85.8735 52.8768 86.0671 52.8334 86.2665 52.7888C86.4769 52.7628 86.6873 52.7368 86.904 52.7101C87.0386 52.8487 87.1733 52.9873 87.312 53.1301C87.0149 53.2062 86.7173 53.2802 86.4195 53.3532C86.2538 53.3946 86.0882 53.436 85.9175 53.4787C85.476 53.5501 85.476 53.5501 85.068 53.3401C85.0389 51.5401 85.0389 51.5401 85.272 50.8201Z" fill="#CE955E"/>
<path d="M88.128 44.73C89.3265 44.9137 89.3265 44.9137 89.556 45.15C89.865 45.1987 90.1756 45.2365 90.4867 45.2681C90.6553 45.2857 90.8239 45.3033 90.9975 45.3214C91.1277 45.3341 91.2579 45.3469 91.392 45.36C91.392 45.5679 91.392 45.7758 91.392 45.99C91.7286 45.99 92.0652 45.99 92.412 45.99C92.412 46.0593 92.412 46.1286 92.412 46.2C92.0081 46.2 91.6042 46.2 91.188 46.2C91.1207 45.9921 91.0534 45.7842 90.984 45.57C90.6116 45.6414 90.6116 45.6414 90.2317 45.7144C89.5808 45.7999 89.3752 45.7907 88.7527 45.5044C88.332 45.15 88.332 45.15 88.128 44.73Z" fill="#ED7E17"/>
<path d="M20.808 44.52C20.808 44.6586 20.808 44.7972 20.808 44.94C19.095 45.2283 17.4448 45.4257 15.708 45.36C15.708 45.2907 15.708 45.2214 15.708 45.15C17.3789 44.6441 19.0701 44.52 20.808 44.52Z" fill="#B87430"/>
<path d="M94.656 47.25C95.1557 47.6841 95.4388 47.9533 95.5995 48.615C95.472 49.14 95.472 49.14 94.8855 49.6256C94.248 49.98 94.248 49.98 93.84 49.98C93.993 49.4681 93.993 49.4681 94.248 48.93C94.6815 48.7594 94.6815 48.7594 95.064 48.72C94.9967 48.5944 94.9294 48.4688 94.86 48.3394C94.656 47.88 94.656 47.88 94.656 47.25Z" fill="#EB8325"/>
<path d="M85.272 50.1899C85.4066 50.1899 85.5413 50.1899 85.68 50.1899C86.1545 50.9531 86.1212 51.6118 86.088 52.4999C86.5592 52.5692 87.0305 52.6385 87.516 52.7099C86.8639 52.9337 86.3619 52.9355 85.68 52.9199C85.6676 52.7933 85.6553 52.6666 85.6426 52.536C85.6169 52.2843 85.6169 52.2843 85.5908 52.0274C85.5742 51.8618 85.5576 51.6961 85.5406 51.5254C85.4808 51.067 85.3902 50.6357 85.272 50.1899Z" fill="#E07C1F"/>
<path d="M92.412 51.2401C91.7458 51.4926 91.0782 51.7408 90.4103 51.9882C90.2208 52.0601 90.0313 52.132 89.8361 52.206C89.5629 52.3065 89.5629 52.3065 89.2843 52.4091C89.1165 52.4717 88.9488 52.5344 88.776 52.599C88.332 52.7101 88.332 52.7101 87.72 52.5001C87.8578 52.4444 87.9956 52.3886 88.1376 52.3311C88.3195 52.257 88.5015 52.1828 88.689 52.1064C88.9588 51.9967 88.9588 51.9967 89.2341 51.8849C89.7508 51.6723 89.7508 51.6723 90.1959 51.4312C90.9601 51.047 91.6104 50.965 92.412 51.2401Z" fill="#CC8743"/>
<path d="M85.068 43.8899C85.8085 43.8899 86.549 43.8899 87.312 43.8899C87.2447 44.1671 87.1774 44.4443 87.108 44.7299C86.906 44.6606 86.7041 44.5913 86.496 44.5199C86.1549 44.6569 85.8148 44.7968 85.476 44.9399C85.3414 44.8706 85.2067 44.8013 85.068 44.7299C85.068 44.4527 85.068 44.1755 85.068 43.8899Z" fill="#EA7A16"/>
<path d="M43.248 40.74C43.3153 40.8786 43.3826 41.0172 43.452 41.16C43.5866 41.2293 43.7213 41.2986 43.86 41.37C43.3809 41.6166 43.0975 41.6042 42.5643 41.6005C42.3907 41.5998 42.2172 41.5991 42.0383 41.5984C41.8569 41.5967 41.6755 41.5949 41.4885 41.5931C41.3055 41.5922 41.1225 41.5912 40.9339 41.5902C40.4812 41.5878 40.0286 41.5843 39.576 41.58C39.576 41.5107 39.576 41.4414 39.576 41.37C40.7878 41.3007 41.9995 41.2314 43.248 41.16C43.248 41.0214 43.248 40.8828 43.248 40.74Z" fill="#E5902C"/>
<path d="M83.844 49.5601C84.4276 49.8294 84.8872 50.0753 85.272 50.6101C85.3102 51.1744 85.3102 51.1744 85.272 51.6601C84.6788 51.194 84.2616 50.8348 83.844 50.1901C83.844 49.9822 83.844 49.7743 83.844 49.5601Z" fill="#FAF0D8"/>
<path d="M81.6637 42.7218C81.8439 42.7821 82.024 42.8425 82.2096 42.9047C82.4128 42.9766 82.4128 42.9766 82.62 43.0499C82.62 43.1192 82.62 43.1885 82.62 43.2599C82.2249 43.2769 81.8296 43.2891 81.4342 43.2993C81.2141 43.3066 80.994 43.3139 80.7673 43.3214C80.172 43.2599 80.172 43.2599 79.7871 42.9424C79.6747 42.7877 79.6747 42.7877 79.56 42.6299C80.3702 42.403 80.8708 42.4497 81.6637 42.7218Z" fill="#EE8B26"/>
<path d="M83.232 48.9299C84.1408 49.1378 84.1408 49.1378 85.068 49.3499C85.1353 49.7657 85.2026 50.1815 85.272 50.6099C85.1247 50.4843 84.9775 50.3587 84.8257 50.2293C84.2678 49.7636 84.2678 49.7636 83.6782 49.4156C83.531 49.3246 83.3837 49.2336 83.232 49.1399C83.232 49.0706 83.232 49.0013 83.232 48.9299Z" fill="#D78739"/>
<path d="M78.948 46.8301C80.6193 46.9036 80.6193 46.9036 81.3067 47.4732C81.4035 47.6075 81.5003 47.7417 81.6 47.8801C81.398 47.984 81.398 47.984 81.192 48.0901C81.0405 47.9948 80.8891 47.8995 80.733 47.8013C80.1235 47.4306 79.6454 47.3336 78.948 47.2501C78.948 47.1115 78.948 46.9729 78.948 46.8301Z" fill="#C18C55"/>
<path d="M24.276 43.05C24.7472 43.1193 25.2185 43.1886 25.704 43.26C25.6367 43.5372 25.5694 43.8144 25.5 44.1C24.9614 44.0307 24.4229 43.9614 23.868 43.89C24.0026 43.6128 24.1373 43.3356 24.276 43.05Z" fill="#DE8422"/>
<path d="M39.372 41.58C38.6211 42.0953 38.0575 42.0479 37.1917 42.0262C36.977 42.0234 36.977 42.0234 36.7578 42.0205C36.4052 42.0155 36.0526 42.008 35.7 42C35.7 41.9307 35.7 41.8614 35.7 41.79C35.8549 41.7773 36.0098 41.7645 36.1694 41.7514C36.3721 41.7338 36.5749 41.7162 36.7837 41.6981C36.9849 41.6811 37.1861 41.664 37.3934 41.6464C38.9805 41.4549 38.9805 41.4549 39.372 41.58Z" fill="#E5871D"/>
<path d="M10.608 45.99C10.6753 46.1286 10.7426 46.2672 10.812 46.41C10.224 46.6118 9.8535 46.6422 9.24375 46.6331C8.99643 46.6303 8.99643 46.6303 8.74411 46.6274C8.55595 46.6237 8.55595 46.6237 8.364 46.62C9.15634 46.0762 9.6752 45.9641 10.608 45.99Z" fill="#C6B89B"/>
<path d="M14.28 45.1499C14.28 45.2885 14.28 45.4271 14.28 45.5699C13.6068 45.6392 12.9336 45.7085 12.24 45.7799C12.3746 45.7106 12.5093 45.6413 12.648 45.5699C12.648 45.4313 12.648 45.2927 12.648 45.1499C13.2707 44.9438 13.6573 44.9438 14.28 45.1499Z" fill="#D79A4E"/>
<path d="M80.172 46.6201C80.5128 46.7241 80.5128 46.7241 80.8605 46.8301C81.5377 47.0587 81.5377 47.0587 82.008 47.0401C82.008 47.3866 82.008 47.7331 82.008 48.0901C81.806 48.0208 81.6041 47.9515 81.396 47.8801C81.396 47.7415 81.396 47.6029 81.396 47.4601C81.2319 47.3995 81.0678 47.3388 80.8987 47.2764C80.376 47.0401 80.376 47.0401 80.172 46.6201Z" fill="#E47A18"/>
</svg>
